<svg width="1440" height="618" viewBox="0 0 1440 618" fill="none" xmlns="http://www.w3.org/2000/svg">
<path d="M-0.5 0H1440V618H-0.5V288V0Z" fill="#FFE49A"/>
<path d="M-0.421891 179.65C35.9637 227.749 54.9353 282.691 42.765 342.606C35.3676 379.024 16.0897 417.672 -9.76436 444.688M-26.1034 270.351C2.07802 241.873 41.4579 228.452 81.11 230.508C115.739 232.304 138.132 246.853 153.269 278.088C180.052 333.355 155.766 402.72 132.287 454.49C124.653 471.322 114.979 488.267 102.574 502.015C87.6164 518.591 66.9424 539.882 44.9381 546.508C31.1356 550.664 21.4825 537.551 19.4214 525.093C16.5712 507.866 24.9349 490.246 32.5166 475.411C58.594 424.384 97.3807 373.463 139.688 335.012C177.604 300.552 219.172 272.129 264.243 248.045C284.009 237.484 304.712 228.918 323.859 217.202" stroke="black" stroke-width="10" stroke-linecap="round"/>
<path d="M1230.46 108.64L1231.59 110.824L1231.36 111.738C1232.01 113.158 1232.65 114.519 1233.26 115.9C1233.78 117.068 1234.19 118.298 1234.77 119.424C1235.4 120.677 1235.9 122.011 1236.59 123.242C1237.22 124.353 1238.2 125.318 1238.42 126.669C1238.68 128.24 1239.93 129.009 1240.4 130.395C1240.9 131.653 1241.45 132.877 1242.06 134.062L1242.46 133.787C1244.57 137.133 1246.61 140.558 1249.73 143.203L1249.81 144.191L1250.51 143.81C1252.08 145.385 1253.77 146.872 1255.29 148.498C1257.16 150.499 1259.45 151.954 1261.05 154.32C1261.92 155.513 1263.02 156.462 1264.28 157.102C1265.02 157.504 1264.72 158.053 1264.9 158.602L1265.93 158.202L1269.78 162.061L1268.79 162.813C1269.08 163.703 1268.74 164.94 1270.36 165.685L1268.18 165.984L1269.27 167.928L1270.35 167.516L1271.51 168.762C1271.42 169.011 1271.36 169.338 1271.26 169.369C1270.48 169.602 1269.69 169.775 1268.91 169.966C1268.3 171.395 1269.61 171.579 1270.01 172.346L1269.44 172.74L1269.67 174.05L1267.05 175.244C1264.73 174.872 1262.09 174.199 1259.41 174.131C1258.02 174.095 1256.63 173.494 1255.38 173.816C1253.83 174.215 1252.64 173.167 1251.31 173.411C1249.85 173.681 1248.57 172.946 1247.25 173.09C1245.81 173.249 1244.51 172.59 1243.2 172.73C1240.07 173.065 1236.99 172.138 1233.85 173.002C1232.72 172.316 1231.2 173.233 1230.18 172.087C1228.69 172.687 1227.18 172.556 1225.67 172.533C1223.54 172.5 1221.39 173.253 1219.25 172.751C1218.65 172.609 1217.91 173 1216.82 173.24L1223.7 177.595L1224.45 179.565L1226.58 179.404C1228.79 181.117 1231.77 181.959 1233.35 184.857C1234.48 183.891 1235.45 185.085 1236.43 184.984C1238.93 187.426 1242.03 188.389 1245.12 190.18C1245.15 190.233 1245.36 190.696 1245.56 191.136C1246.62 191.95 1248.05 191.564 1249.04 192.746C1249.76 193.603 1251.06 194.073 1252.17 194.21C1253.44 194.393 1254.61 194.988 1255.54 195.923C1256.57 196.935 1257.78 196.731 1258.92 197.407C1259.06 197.723 1259.27 198.185 1259.57 198.825C1262.37 199.216 1264.97 200.512 1267.77 201.474L1268.32 203.019L1271.14 203.722L1270 204.645C1271.46 204.84 1272.05 205.902 1272.5 207.291C1272.28 207.547 1272.03 207.843 1271.81 208.095L1274.71 213.937C1274.3 214.72 1273.98 215.314 1273.57 216.081L1272.5 216.367L1272.31 217.102L1273.29 217.792C1272.95 219.679 1271.68 220.671 1270.31 221.53C1268.97 221.459 1268.97 221.459 1267.65 223.065L1269 222.607C1268.99 222.908 1268.99 223.248 1268.97 223.721L1267.15 223.585C1267.29 223.951 1267.38 224.193 1267.45 224.373L1263.07 228.553L1261.84 228.248L1262.28 229.286L1261.15 229.426L1260.82 230.759C1260.36 231.078 1260.03 231.31 1259.7 231.542C1259.24 230.822 1258.3 230.469 1258.44 229.29C1257.21 230.473 1258.19 231.362 1258.66 232.553L1257.2 232.341C1256.2 233.462 1255.01 234.35 1254.52 236.118C1254.11 237.592 1252.65 238.003 1251.2 238.284L1251.57 239.342L1250 239.302C1249.98 239.456 1249.95 239.683 1249.87 240.358C1249.15 241.055 1247.95 241.865 1247.2 243.029C1246.14 244.686 1244.26 244.86 1243.2 246.575C1242.27 248.079 1240.92 249.292 1239.49 250.39C1237.54 251.889 1235.87 253.891 1233.96 255.805L1235.47 256.182C1235.67 255.913 1235.95 255.526 1236.34 254.998L1237.32 256.152C1238.17 255.901 1239.02 255.588 1239.84 255.215C1240.52 254.858 1241.52 255.045 1241.81 253.88C1242.77 254.452 1243.55 253.711 1244.33 253.179L1244.63 253.756C1247.5 251.818 1250.62 250.888 1253.81 250.204L1256.5 248.234L1257.42 248.461L1261.6 246.485C1261.76 247.202 1261.87 247.713 1262.01 248.37L1264.59 247.477L1264.67 245.135L1270.7 242.534C1270.15 243.693 1269.52 243.878 1268.99 244.331C1269.89 245.365 1270.47 244.08 1271.15 243.854C1271.36 244.145 1271.58 244.435 1272.03 245.054L1272.83 243.461L1273.14 244.032L1272.81 242.622L1275.01 242.007L1275.52 242.859L1276.3 242.363C1276.38 241.471 1276.46 240.524 1276.53 239.66C1279.11 238.724 1281.57 237.831 1284.03 236.939C1284.08 237.043 1284.13 237.148 1284.19 237.252L1283.23 238.171L1287.3 238.321C1287.31 239.605 1287.32 240.793 1287.33 242.517L1288.11 243.68C1284.84 245.042 1282.02 247.071 1279.14 248.853C1275.16 251.318 1270.92 252.902 1266.86 255.066C1262.63 257.321 1258.17 258.962 1253.82 260.885C1251.34 261.98 1248.88 263.16 1246.39 264.2C1242.88 265.661 1239.39 267.183 1235.82 268.363C1234.25 268.882 1232.91 270.002 1231.19 270.215C1229.72 270.397 1228.29 271.431 1226.84 272.106C1223.15 273.829 1219.42 275.431 1215.88 277.612C1213.57 279.032 1211.11 280.124 1208.37 281.544L1205.09 280.726C1205.29 279.808 1205.23 278.749 1206.35 277.969L1204.38 277.202C1203.71 274.297 1204.17 271.464 1205.33 268.315L1207.4 267.335L1209.28 266.983C1209.21 265.919 1209.16 265.12 1209.12 264.366C1210.13 263.418 1211.09 262.395 1212.16 261.554C1213.07 260.837 1213.44 259.161 1215.11 259.807L1214.55 258.725C1215.97 258.482 1216.22 256.102 1217.98 256.51C1218.17 255.973 1218.35 255.49 1218.55 254.92L1219.36 254.909C1221.53 251.478 1224.62 249.11 1227.59 246.487C1227.65 246.256 1227.64 245.845 1227.82 245.644C1228.54 244.835 1229.28 243.596 1230.09 243.437C1231.42 243.182 1231.86 241.13 1233.4 241.659C1233.63 240.906 1233.84 240.209 1234.07 239.461L1235.19 239.29C1235.3 238.925 1235.42 238.527 1235.6 237.912L1238.53 235.979C1238.65 236.756 1238.72 237.218 1238.81 237.855C1239.47 237.179 1240.06 236.569 1240.66 235.959C1240.57 235.603 1240.47 235.248 1240.32 234.683C1240.83 234.493 1241.36 234.419 1241.75 234.118C1242.09 233.856 1242.29 233.339 1242.55 232.941L1242.15 231.633L1243.9 230.996L1245.16 231.78L1245.48 230.504C1246.56 230.165 1247.31 229.938 1247.92 228.618C1248.94 226.374 1250.74 224.634 1252.25 222.725C1252.48 222.433 1253.05 222.469 1253.45 222.355L1253.24 221.826C1254.27 220.987 1255.14 220.057 1256.15 219.507C1257.18 218.948 1258.36 218.762 1259.75 218.324C1260.17 217.697 1259.63 217.374 1258.06 217.349L1260.12 216.228L1261.3 217.359L1261.11 215.064L1261.86 214.366C1261.67 214.028 1261.49 213.336 1261.23 213.308C1259.93 213.172 1259.16 212.249 1258.38 211.456C1256.22 211.559 1254.77 209.846 1252.96 209.141C1250.95 208.399 1249.02 207.433 1247.2 206.257C1245.49 205.106 1243.77 203.875 1241.91 203.199C1239.93 202.48 1238.28 201.181 1236.41 200.32C1234.5 199.396 1232.67 198.278 1230.96 196.979C1229.29 195.764 1227.38 195.055 1225.71 193.798C1224 192.501 1222.18 191.376 1220.28 190.436C1218.42 189.525 1216.93 188.052 1215.16 187.038C1213.39 186.027 1211.67 184.914 1209.98 183.747C1208.23 182.535 1206.57 181.187 1204.84 179.929C1203.19 178.721 1201.51 177.553 1199.69 176.266L1198.44 173.815L1199.09 173.303C1199.51 171.978 1198.49 171.739 1198.03 171.248C1198.15 169.841 1198.26 168.524 1198.38 167.101L1198.97 166.659C1198.1 164.695 1199.42 163.533 1200.55 162.506C1201.68 161.468 1203.02 160.729 1204.36 159.798C1207.11 160.034 1210.02 158.15 1212.81 159.834L1213.34 158.655L1218.88 158.982C1218.92 158.913 1219.1 158.579 1219.24 158.331C1220.89 158.227 1222.49 158.081 1224.08 158.048C1224.71 158.036 1225.54 158.037 1225.91 158.448C1226.29 158.937 1226.8 159.275 1227.38 159.419C1227.95 159.562 1228.57 159.504 1229.13 159.252C1229.74 159.035 1230.47 159.369 1231.24 159.018L1229.08 158.48C1229.33 158.141 1229.47 157.883 1229.51 157.9C1230.92 158.41 1232.4 158.114 1233.82 157.942C1235.01 157.798 1236.29 157.882 1236.96 158.589C1237.82 159.505 1238.83 159.228 1240.05 160.086L1239.66 158.899C1241.59 158.107 1242.35 157.943 1243.45 158.985C1244.33 159.82 1245.3 159.582 1246.32 159.556L1243.69 158.527L1248.77 158.558C1244.99 155.23 1242.51 151.288 1239.66 147.725C1236.76 144.098 1235.53 141.945 1234.12 138.183C1233.86 137.499 1233.21 137.036 1232.91 136.368C1232.38 135.211 1232.06 133.913 1231.49 132.788C1230.96 131.755 1230.07 130.965 1229.6 129.905C1228.37 127.098 1227.57 124.043 1226.16 121.326C1226.03 121.059 1226.28 120.514 1226.36 120.052C1226.04 119.681 1225.53 119.349 1225.37 118.853C1224.61 116.43 1223.8 114.013 1223.31 111.496C1222.92 109.497 1222.39 107.545 1222.13 105.464C1221.89 103.407 1222.25 101.446 1222.26 99.467C1222.26 97.4214 1223.24 95.4638 1224.56 93.6553C1226.02 96.054 1228.45 94.0862 1230.38 94.7075L1227.67 93.7716L1227.83 93.2752L1229.65 93.7292C1230.2 93.8664 1230.75 94.0146 1231.3 94.1376C1231.92 94.2754 1232.55 94.6567 1233.16 93.9695C1233.27 94.9827 1234.2 94.058 1234.44 94.5556C1234.88 95.4477 1235.56 93.9589 1236.05 94.7515C1236.4 95.179 1236.86 95.4832 1237.36 95.6318C1237.96 95.8318 1238.56 95.9899 1239.18 96.1052L1239.26 97.6832L1240.03 96.3919L1241.25 96.573L1242.48 98.9624L1243.66 99.1799L1244.41 97.975C1244.5 98.5623 1244.56 99.0123 1244.63 99.4615L1245.24 99.612L1246.1 98.4345C1247.54 99.416 1248.8 100.628 1250.54 101.012C1251.33 101.186 1251.97 102.039 1252.75 102.642L1253.13 102.444L1257.37 104.991L1255.68 105.921C1256.44 106.274 1257.29 106.363 1258.13 106.177C1258.19 106.251 1258.24 106.328 1258.29 106.409C1258.39 106.586 1258.48 106.769 1258.59 106.981C1258.75 106.859 1258.91 106.733 1259.07 106.617C1259.15 106.564 1259.24 106.516 1259.33 106.474L1261.52 107.975L1260.83 110.742L1261.15 111.041C1261.47 110.701 1261.8 110.36 1262.26 109.877L1261.94 108.316L1265.02 110.083L1264.97 111.094C1266.62 110.365 1267.42 111.489 1268.23 112.665C1268.5 113.044 1268.83 113.362 1269.2 113.607C1270.02 114.152 1270.87 114.631 1271.88 115.24C1271.88 115.279 1271.88 115.576 1271.88 116.19L1274.02 116.55C1273.9 116.361 1274 116.652 1274.18 116.788C1275.7 117.882 1277.34 118.765 1278.76 120.009C1278.9 120.125 1279.12 120.112 1279.28 120.204C1280.31 120.799 1280.4 122.555 1281.73 122.752C1282.91 122.925 1283.37 124.146 1284.25 124.745C1285.21 125.39 1286.1 126.139 1287.01 126.859C1287.25 127.128 1287.51 127.374 1287.79 127.596C1288.2 127.754 1288.62 127.866 1289.05 127.931L1289.57 129.39L1291.43 129.855C1292.21 131.453 1292.96 133.086 1294.82 133.39C1295 133.406 1295.17 133.501 1295.28 133.654C1296.34 136.08 1298.81 136.696 1300.32 138.611C1301.78 140.457 1303.81 141.708 1305.42 143.412C1307.56 145.67 1309.55 148.11 1311.59 150.485C1311.79 150.708 1311.93 150.986 1312 151.295C1312.56 154.067 1313.09 156.848 1313.57 159.365C1312.92 160.846 1312.39 162.063 1311.7 163.631L1309.5 164.478C1308.19 163.46 1306.88 162.548 1305.68 161.471C1304.46 160.402 1303.32 159.224 1302.27 157.948C1300.01 155.136 1297.22 153.007 1294.8 150.42C1293.37 148.89 1291.5 147.869 1290.5 145.824C1287.51 144.04 1285.14 141.379 1282.5 139.086C1281.36 138.095 1280.35 136.888 1279.04 136.104C1277.84 135.382 1276.74 134.439 1275.59 133.598C1272.01 130.969 1268.43 128.321 1264.83 125.724C1262.95 124.37 1261.04 123.068 1259.11 121.816C1257.16 120.558 1255.04 119.519 1253.19 118.188C1249.93 115.855 1246.2 114.668 1242.9 112.498C1241.15 111.353 1239 110.91 1236.99 110.295C1235.03 109.694 1233.02 109.279 1230.46 108.64Z" fill="black"/>
<path d="M1292.27 462.346L1292.08 460.499L1292.48 459.898C1292.41 458.717 1292.33 457.581 1292.28 456.438C1292.24 455.473 1292.28 454.487 1292.18 453.537C1292.08 452.481 1292.09 451.4 1291.94 450.344C1291.8 449.39 1291.38 448.458 1291.59 447.432C1291.83 446.238 1291.18 445.382 1291.22 444.268C1291.21 443.242 1291.16 442.227 1291.05 441.225L1290.7 441.326C1290.14 438.404 1289.64 435.44 1288.18 432.774L1288.39 432.045L1287.8 432.146C1287.13 430.629 1286.35 429.145 1285.73 427.604C1284.97 425.708 1283.77 424.1 1283.3 422.007C1283.01 420.936 1282.5 419.983 1281.8 419.214C1281.39 418.743 1281.75 418.422 1281.77 417.985L1280.94 418.018L1279.31 414.302L1280.19 414.002C1280.24 413.292 1280.8 412.486 1279.88 411.553L1281.48 411.873L1281.24 410.208L1280.38 410.24L1279.9 409.058C1280.04 408.904 1280.17 408.682 1280.25 408.685C1280.85 408.708 1281.45 408.777 1282.04 408.831C1282.85 407.953 1281.99 407.5 1281.92 406.852L1282.42 406.707L1282.62 405.711L1284.76 405.493C1286.28 406.331 1287.94 407.461 1289.79 408.168C1290.74 408.533 1291.55 409.307 1292.51 409.382C1293.69 409.475 1294.24 410.52 1295.23 410.67C1296.32 410.835 1297.02 411.677 1297.97 411.896C1299.02 412.136 1299.74 412.928 1300.7 413.15C1302.97 413.677 1304.87 415.098 1307.28 415.245C1307.88 416.015 1309.2 415.731 1309.59 416.803C1310.79 416.739 1311.81 417.202 1312.86 417.589C1314.33 418.136 1316.03 418.121 1317.39 419.007C1317.77 419.257 1318.39 419.156 1319.21 419.252L1315.6 414.434L1315.6 412.833L1314.08 412.427C1313 410.655 1311.16 409.319 1310.83 406.847C1309.79 407.264 1309.43 406.167 1308.72 406.001C1307.64 403.631 1305.74 402.18 1304.07 400.134C1304.07 400.089 1304.05 399.705 1304.02 399.339C1303.51 398.495 1302.41 398.421 1302.03 397.329C1301.77 396.536 1300.99 395.88 1300.25 395.507C1299.41 395.065 1298.76 394.351 1298.36 393.45C1297.92 392.471 1297.02 392.321 1296.41 391.556C1296.4 391.294 1296.37 390.909 1296.34 390.377C1294.5 389.41 1293.03 387.839 1291.34 386.462L1291.38 385.216L1289.6 384.019L1290.64 383.634C1289.68 383.137 1289.56 382.229 1289.62 381.12C1289.84 380.989 1290.1 380.838 1290.31 380.71L1289.87 375.799C1290.37 375.339 1290.75 374.989 1291.25 374.538L1292.07 374.596L1292.4 374.113L1291.9 373.376C1292.65 372.104 1293.8 371.702 1294.99 371.421C1295.9 371.8 1295.9 371.8 1297.26 370.971L1296.19 370.968C1296.28 370.754 1296.37 370.511 1296.51 370.174L1297.74 370.719C1297.75 370.422 1297.75 370.225 1297.75 370.08L1301.93 368.148L1302.7 368.668L1302.68 367.816L1303.5 367.99L1304.09 367.114C1304.5 366.997 1304.79 366.912 1305.08 366.826C1305.21 367.456 1305.77 367.941 1305.35 368.754C1306.53 368.205 1306.09 367.326 1306.08 366.355L1307.04 366.863C1308.04 366.304 1309.11 365.957 1309.93 364.806C1310.61 363.847 1311.74 363.911 1312.82 364.063L1312.85 363.213L1313.93 363.625C1313.99 363.52 1314.07 363.363 1314.31 362.899C1315 362.574 1316.05 362.286 1316.89 361.633C1318.07 360.702 1319.43 361.038 1320.63 360.065C1321.69 359.212 1322.95 358.67 1324.25 358.232C1326.01 357.633 1327.71 356.602 1329.56 355.696L1328.61 355.055C1328.4 355.2 1328.1 355.408 1327.69 355.693L1327.32 354.622C1326.65 354.593 1325.98 354.612 1325.31 354.678C1324.73 354.767 1324.09 354.388 1323.58 355.155C1323.06 354.507 1322.32 354.849 1321.63 355.04L1321.58 354.552C1319.06 355.242 1316.63 355.145 1314.22 354.854L1311.81 355.61L1311.24 355.223L1307.79 355.618C1307.88 355.064 1307.94 354.669 1308.01 354.161L1305.98 354.172L1305.29 355.836L1300.39 356.228C1301.08 355.528 1301.58 355.551 1302.06 355.354C1301.72 354.391 1300.97 355.173 1300.43 355.167C1300.36 354.906 1300.29 354.645 1300.14 354.089L1299.15 355.038L1299.09 354.552L1298.94 355.646L1297.24 355.548L1297.12 354.811L1296.44 354.975C1296.15 355.598 1295.83 356.26 1295.55 356.863C1293.5 356.903 1291.55 356.942 1289.59 356.981C1289.58 356.893 1289.58 356.804 1289.57 356.716L1290.48 356.29L1287.69 355.185C1288.03 354.259 1288.34 353.403 1288.8 352.16L1288.57 351.132C1291.22 350.956 1293.72 350.188 1296.21 349.614C1299.65 348.818 1303.03 348.719 1306.44 348.159C1310 347.575 1313.55 347.489 1317.1 347.175C1319.12 346.996 1321.15 346.75 1323.17 346.614C1326.01 346.422 1328.85 346.185 1331.65 346.211C1332.89 346.223 1334.13 345.748 1335.38 346.015C1336.45 346.245 1337.73 345.854 1338.92 345.724C1341.96 345.391 1344.99 345.153 1348.05 344.454C1350.04 343.999 1352.04 343.816 1354.33 343.467L1356.4 344.86C1356.01 345.47 1355.77 346.248 1354.78 346.533L1355.94 347.568C1355.63 349.821 1354.54 351.744 1352.88 353.723L1351.17 353.92L1349.77 353.713C1349.53 354.493 1349.35 355.08 1349.18 355.633C1348.22 356.066 1347.27 356.566 1346.3 356.909C1345.47 357.201 1344.76 358.315 1343.77 357.441L1343.87 358.355C1342.82 358.183 1342 359.832 1340.89 359.109C1340.61 359.447 1340.35 359.751 1340.05 360.11L1339.49 359.921C1337.05 361.853 1334.26 362.799 1331.48 363.956C1331.38 364.107 1331.27 364.405 1331.1 364.506C1330.37 364.91 1329.53 365.621 1328.92 365.535C1327.92 365.393 1327.06 366.759 1326.13 366.001C1325.77 366.487 1325.43 366.936 1325.07 367.418L1324.25 367.267C1324.07 367.502 1323.88 367.759 1323.59 368.157L1321.02 368.826C1321.15 368.239 1321.23 367.891 1321.34 367.41C1320.7 367.734 1320.12 368.027 1319.54 368.32C1319.51 368.598 1319.48 368.877 1319.43 369.319C1319.02 369.33 1318.64 369.256 1318.28 369.376C1317.97 369.48 1317.7 369.803 1317.41 370.026L1317.33 371.065L1315.94 371.092L1315.27 370.22L1314.71 371.059C1313.87 371.038 1313.28 371.015 1312.5 371.817C1311.18 373.179 1309.46 373.989 1307.89 374.99C1307.65 375.143 1307.27 374.979 1306.95 374.962L1306.96 375.394C1306.02 375.746 1305.16 376.201 1304.31 376.347C1303.44 376.496 1302.57 376.341 1301.48 376.315C1301.02 376.663 1301.3 377.026 1302.39 377.431L1300.66 377.732L1300.14 376.629L1299.65 378.326L1298.94 378.643C1298.98 378.933 1298.92 379.473 1299.09 379.558C1299.96 379.974 1300.25 380.827 1300.58 381.588C1302.11 382.045 1302.66 383.631 1303.73 384.581C1304.93 385.608 1306.01 386.776 1306.96 388.068C1307.85 389.315 1308.71 390.621 1309.82 391.564C1311.01 392.565 1311.8 393.902 1312.88 394.982C1313.96 396.115 1314.93 397.366 1315.77 398.72C1316.61 400.003 1317.74 400.979 1318.57 402.292C1319.41 403.645 1320.37 404.899 1321.44 406.041C1322.5 407.154 1323.13 408.577 1324.1 409.74C1325.05 410.901 1325.95 412.123 1326.81 413.375C1327.7 414.675 1328.5 416.054 1329.36 417.38C1330.19 418.655 1331.04 419.907 1331.96 421.276L1332.17 423.346L1331.58 423.554C1330.93 424.404 1331.57 424.825 1331.76 425.29C1331.3 426.272 1330.86 427.192 1330.4 428.185L1329.87 428.359C1329.95 429.986 1328.71 430.495 1327.65 430.958C1326.58 431.427 1325.45 431.629 1324.27 431.971C1322.41 431.126 1319.87 431.766 1318.38 429.871L1317.7 430.589L1313.93 428.996C1313.88 429.036 1313.67 429.231 1313.5 429.376C1312.33 429.046 1311.17 428.759 1310.05 428.391C1309.61 428.246 1309.04 428.043 1308.89 427.656C1308.75 427.211 1308.49 426.842 1308.13 426.598C1307.76 426.354 1307.32 426.246 1306.86 426.288C1306.38 426.295 1305.96 425.874 1305.33 425.94L1306.69 426.856C1306.42 427.038 1306.26 427.189 1306.23 427.166C1305.39 426.455 1304.28 426.304 1303.24 426.08C1302.37 425.891 1301.5 425.517 1301.23 424.846C1300.88 423.976 1300.1 423.928 1299.48 423.011L1299.43 423.96C1297.87 424.056 1297.3 423.987 1296.81 422.968C1296.42 422.151 1295.69 422.086 1294.97 421.854L1296.52 423.238L1292.99 421.97C1294.73 425.291 1295.39 428.733 1296.42 431.993C1297.46 435.311 1297.73 437.161 1297.7 440.21C1297.69 440.764 1298.02 441.257 1298.05 441.812C1298.11 442.774 1297.98 443.785 1298.07 444.733C1298.16 445.605 1298.57 446.392 1298.61 447.268C1298.71 449.588 1298.44 451.98 1298.69 454.279C1298.71 454.505 1298.39 454.833 1298.21 455.146C1298.33 455.491 1298.6 455.856 1298.57 456.251C1298.45 458.178 1298.36 460.115 1298.02 462.045C1297.75 463.578 1297.6 465.112 1297.21 466.67C1296.83 468.21 1296.05 469.529 1295.51 470.951C1294.95 472.42 1293.74 473.588 1292.34 474.564C1291.97 472.481 1289.74 473.299 1288.57 472.381L1290.2 473.717L1289.96 474.036L1288.81 473.263C1288.47 473.029 1288.12 472.789 1287.77 472.565C1287.38 472.314 1287.04 471.885 1286.43 472.23C1286.63 471.474 1285.73 471.91 1285.7 471.493C1285.63 470.746 1284.76 471.648 1284.63 470.958C1284.5 470.565 1284.26 470.234 1283.95 470.003C1283.59 469.714 1283.21 469.452 1282.82 469.218L1283.18 468.063L1282.3 468.803L1281.49 468.372L1281.28 466.354L1280.52 465.908L1279.68 466.592C1279.77 466.148 1279.85 465.807 1279.92 465.467L1279.54 465.211L1278.62 465.845C1277.88 464.787 1277.33 463.606 1276.22 462.903C1275.72 462.585 1275.51 461.816 1275.13 461.192L1274.81 461.241L1272.54 458.37L1273.97 458.114C1273.53 457.674 1272.97 457.402 1272.33 457.331C1272.31 457.264 1272.3 457.194 1272.28 457.124C1272.26 456.973 1272.25 456.819 1272.23 456.64C1272.09 456.688 1271.94 456.74 1271.8 456.784C1271.72 456.801 1271.65 456.814 1271.58 456.823L1270.46 455.208L1271.69 453.388L1271.54 453.094C1271.23 453.259 1270.91 453.424 1270.46 453.658L1270.26 454.86L1268.59 452.832L1268.9 452.119C1267.55 452.237 1267.29 451.232 1267.05 450.189C1266.96 449.851 1266.82 449.542 1266.63 449.275C1266.2 448.683 1265.74 448.129 1265.2 447.444C1265.21 447.416 1265.29 447.202 1265.45 446.759L1264.06 445.977C1264.09 446.141 1264.11 445.91 1264.01 445.766C1263.25 444.608 1262.35 443.572 1261.69 442.327C1261.63 442.211 1261.47 442.166 1261.39 442.062C1260.83 441.381 1261.24 440.096 1260.37 439.627C1259.59 439.214 1259.6 438.224 1259.15 437.576C1258.66 436.88 1258.24 436.122 1257.8 435.382C1257.7 435.129 1257.59 434.887 1257.45 434.659C1257.21 434.446 1256.95 434.262 1256.67 434.11L1256.7 432.935L1255.53 432.142C1255.42 430.805 1255.33 429.445 1254.12 428.77C1254 428.714 1253.91 428.606 1253.87 428.469C1253.79 426.465 1252.23 425.415 1251.7 423.668C1251.18 421.984 1250.11 420.588 1249.44 418.966C1248.56 416.819 1247.83 414.577 1247.05 412.369C1246.98 412.161 1246.95 411.926 1246.98 411.686C1247.35 409.557 1247.73 407.429 1248.07 405.501C1248.92 404.595 1249.62 403.851 1250.52 402.892L1252.29 402.823C1252.92 403.875 1253.59 404.854 1254.14 405.922C1254.7 406.99 1255.17 408.116 1255.56 409.291C1256.37 411.865 1257.74 414.08 1258.73 416.533C1259.32 417.985 1260.34 419.178 1260.49 420.892C1262.09 422.907 1263.02 425.402 1264.24 427.697C1264.77 428.688 1265.14 429.803 1265.84 430.689C1266.49 431.504 1267 432.45 1267.57 433.336C1269.36 436.105 1271.13 438.885 1272.94 441.636C1273.88 443.069 1274.86 444.473 1275.87 445.849C1276.89 447.231 1278.09 448.497 1279.02 449.909C1280.65 452.383 1282.93 454.152 1284.65 456.522C1285.56 457.772 1286.94 458.619 1288.17 459.554C1289.37 460.466 1290.66 461.258 1292.27 462.346Z" fill="black"/>
<path d="M250 230L287.5 219.5L283 190L303.5 208L319.5 193L317 208L346 210L319.5 227.5L337.5 256L306.5 240.5L283 272.5V238.5L250 230Z" fill="#F44618"/>
</svg>
