<svg width="529" height="487" viewBox="0 0 529 487" fill="none" xmlns="http://www.w3.org/2000/svg">
<g filter="url(#filter0_d_508_53)">
<rect x="4" width="521" height="479" rx="15" fill="#FFE49A"/>
<path d="M412.008 112.783L95.1666 167.5L92.7541 151.167C89.5375 133.2 101.6 116.867 119.292 113.6L373.408 70.3166C391.1 67.05 407.183 79.3 410.4 97.2666L412.008 112.783Z" fill="#FBB713"/>
<path d="M384.666 379.833H127.333C109.642 379.833 95.1665 365.133 95.1665 347.167V167.5H416.833V347.167C416.833 365.133 402.358 379.833 384.666 379.833Z" fill="#FBB713"/>
<path d="M214.184 97.2667L253.588 140.55L285.754 134.833L245.546 91.55L214.184 97.2667Z" fill="#F44618"/>
<path d="M150.654 107.883L190.058 151.167L222.225 145.45L182.017 102.983L150.654 107.883Z" fill="#F44618"/>
<path d="M277.712 86.65L317.117 129.117L348.479 124.217L309.075 80.9333L277.712 86.65Z" fill="#F44618"/>
<path d="M340.438 76.0333L380.646 118.5L412.008 112.783L372.604 70.3167L340.438 76.0333Z" fill="#F44618"/>
<path d="M123.312 151.167C129.974 151.167 135.375 145.682 135.375 138.917C135.375 132.151 129.974 126.667 123.312 126.667C116.651 126.667 111.25 132.151 111.25 138.917C111.25 145.682 116.651 151.167 123.312 151.167Z" fill="#F44618"/>
<path d="M384.667 167.5L352.5 216.5H384.667L416.833 167.5H384.667Z" fill="#F44618"/>
<path d="M320.333 167.5L288.167 216.5H320.333L352.5 167.5H320.333Z" fill="#F44618"/>
<path d="M256 167.5L223.833 216.5H256L288.166 167.5H256Z" fill="#F44618"/>
<path d="M191.667 167.5L159.5 216.5H191.667L223.833 167.5H191.667Z" fill="#F44618"/>
<path d="M127.333 167.5L95.1665 216.5H127.333L159.5 167.5H127.333Z" fill="#F44618"/>
</g>
<defs>
<filter id="filter0_d_508_53" x="0" y="0" width="529" height="487" filterUnits="userSpaceOnUse" color-interpolation-filters="sRGB">
<feFlood flood-opacity="0" result="BackgroundImageFix"/>
<feColorMatrix in="SourceAlpha" type="matrix" values="0 0 0 0 0 0 0 0 0 0 0 0 0 0 0 0 0 0 127 0" result="hardAlpha"/>
<feOffset dy="4"/>
<feGaussianBlur stdDeviation="2"/>
<feComposite in2="hardAlpha" operator="out"/>
<feColorMatrix type="matrix" values="0 0 0 0 0 0 0 0 0 0 0 0 0 0 0 0 0 0 0.25 0"/>
<feBlend mode="normal" in2="BackgroundImageFix" result="effect1_dropShadow_508_53"/>
<feBlend mode="normal" in="SourceGraphic" in2="effect1_dropShadow_508_53" result="shape"/>
</filter>
</defs>
</svg>
