<svg width="1440" height="618" viewBox="0 0 1440 618" fill="none" xmlns="http://www.w3.org/2000/svg">
<rect x="-223" width="1663" height="618" fill="#FFE49A"/>
<path d="M-111.893 532.969C-168.377 446.236 -247.283 323.257 -197.788 214.678C-180.733 177.262 -139.998 115.227 -92.7399 118.82C-50.5757 122.026 -13.5918 150.233 11.3057 184.199C46.151 231.737 64.1981 286.131 52.2338 345.581C44.9617 381.717 26.2389 420.112 1.23039 447C-14.1458 463.532 -45.1554 490.588 -68.1481 472.886C-89.4339 456.497 -88.5056 421.165 -85.1122 397.019C-78.1571 347.531 -47.0399 308.803 -13.7957 274.226C13.4601 245.878 51.4393 232.412 89.6178 234.29C122.96 235.929 144.466 250.262 158.917 281.168C184.485 335.851 160.814 404.72 137.992 456.14C130.572 472.859 121.187 489.699 109.184 503.379C94.7119 519.873 74.7154 541.065 53.4973 547.724C40.1879 551.9 30.9448 538.939 29.0106 526.597C26.3357 509.529 34.4621 492.027 41.824 477.288C67.1453 426.593 104.706 375.951 145.606 337.658C182.261 303.339 222.409 274.992 265.913 250.931C284.99 240.38 304.964 231.803 323.451 220.11" stroke="black" stroke-width="10" stroke-linecap="round"/>
<path d="M1195.46 108.64L1196.59 110.824L1196.36 111.738C1197.01 113.158 1197.65 114.519 1198.26 115.9C1198.78 117.068 1199.19 118.298 1199.77 119.424C1200.4 120.677 1200.9 122.011 1201.59 123.242C1202.22 124.353 1203.2 125.318 1203.42 126.669C1203.68 128.24 1204.93 129.009 1205.4 130.395C1205.9 131.653 1206.45 132.877 1207.06 134.062L1207.46 133.787C1209.57 137.133 1211.61 140.558 1214.73 143.203L1214.81 144.191L1215.51 143.81C1217.08 145.385 1218.77 146.872 1220.29 148.498C1222.16 150.499 1224.45 151.954 1226.05 154.32C1226.92 155.513 1228.02 156.462 1229.28 157.102C1230.02 157.504 1229.72 158.053 1229.9 158.602L1230.93 158.202L1234.78 162.061L1233.79 162.813C1234.08 163.703 1233.74 164.94 1235.36 165.685L1233.18 165.984L1234.27 167.928L1235.35 167.516L1236.51 168.762C1236.42 169.011 1236.36 169.338 1236.26 169.369C1235.48 169.602 1234.69 169.775 1233.91 169.966C1233.3 171.395 1234.61 171.579 1235.01 172.346L1234.44 172.74L1234.67 174.05L1232.05 175.244C1229.73 174.872 1227.09 174.199 1224.41 174.131C1223.02 174.095 1221.63 173.494 1220.38 173.816C1218.83 174.215 1217.64 173.167 1216.31 173.411C1214.85 173.681 1213.57 172.946 1212.25 173.09C1210.81 173.249 1209.51 172.59 1208.2 172.73C1205.07 173.065 1201.99 172.138 1198.85 173.002C1197.72 172.316 1196.2 173.233 1195.18 172.087C1193.69 172.687 1192.18 172.556 1190.67 172.533C1188.54 172.5 1186.39 173.253 1184.25 172.751C1183.65 172.609 1182.91 173 1181.82 173.24L1188.7 177.595L1189.45 179.565L1191.58 179.404C1193.79 181.117 1196.77 181.959 1198.35 184.857C1199.48 183.891 1200.45 185.085 1201.43 184.984C1203.93 187.426 1207.03 188.389 1210.12 190.18C1210.15 190.233 1210.36 190.696 1210.56 191.136C1211.62 191.95 1213.05 191.564 1214.04 192.746C1214.76 193.603 1216.06 194.073 1217.17 194.21C1218.44 194.393 1219.61 194.988 1220.54 195.923C1221.57 196.935 1222.78 196.731 1223.92 197.407C1224.06 197.723 1224.27 198.185 1224.57 198.825C1227.37 199.216 1229.97 200.512 1232.77 201.474L1233.32 203.019L1236.14 203.722L1235 204.645C1236.46 204.84 1237.05 205.902 1237.5 207.291C1237.28 207.547 1237.03 207.843 1236.81 208.095L1239.71 213.937C1239.3 214.72 1238.98 215.314 1238.57 216.081L1237.5 216.367L1237.31 217.102L1238.29 217.792C1237.95 219.679 1236.68 220.671 1235.31 221.53C1233.97 221.459 1233.97 221.459 1232.65 223.065L1234 222.607C1233.99 222.908 1233.99 223.248 1233.97 223.721L1232.15 223.585C1232.29 223.951 1232.38 224.193 1232.45 224.373L1228.07 228.553L1226.84 228.248L1227.28 229.286L1226.15 229.426L1225.82 230.759C1225.36 231.078 1225.03 231.31 1224.7 231.542C1224.24 230.822 1223.3 230.469 1223.44 229.29C1222.21 230.473 1223.19 231.362 1223.66 232.553L1222.2 232.341C1221.2 233.462 1220.01 234.35 1219.52 236.118C1219.11 237.592 1217.65 238.003 1216.2 238.284L1216.57 239.342L1215 239.302C1214.98 239.456 1214.95 239.683 1214.87 240.358C1214.15 241.055 1212.95 241.865 1212.2 243.029C1211.14 244.686 1209.26 244.86 1208.2 246.575C1207.27 248.079 1205.92 249.292 1204.49 250.39C1202.54 251.889 1200.87 253.891 1198.96 255.805L1200.47 256.182C1200.67 255.913 1200.95 255.526 1201.34 254.998L1202.32 256.152C1203.17 255.901 1204.02 255.588 1204.84 255.215C1205.52 254.858 1206.52 255.045 1206.81 253.88C1207.77 254.452 1208.55 253.711 1209.33 253.179L1209.63 253.756C1212.5 251.818 1215.62 250.888 1218.81 250.204L1221.5 248.234L1222.42 248.461L1226.6 246.485C1226.76 247.202 1226.87 247.713 1227.01 248.37L1229.59 247.477L1229.67 245.135L1235.7 242.534C1235.15 243.693 1234.52 243.878 1233.99 244.331C1234.89 245.365 1235.47 244.08 1236.15 243.854C1236.36 244.145 1236.58 244.435 1237.03 245.054L1237.83 243.461L1238.14 244.032L1237.81 242.622L1240.01 242.007L1240.52 242.859L1241.3 242.363C1241.38 241.471 1241.46 240.524 1241.53 239.66C1244.11 238.724 1246.57 237.831 1249.03 236.939C1249.08 237.043 1249.13 237.148 1249.19 237.252L1248.23 238.171L1252.3 238.321C1252.31 239.605 1252.32 240.793 1252.33 242.517L1253.11 243.68C1249.84 245.042 1247.02 247.071 1244.14 248.853C1240.16 251.318 1235.92 252.902 1231.86 255.067C1227.63 257.321 1223.17 258.962 1218.82 260.885C1216.34 261.98 1213.88 263.16 1211.39 264.2C1207.88 265.661 1204.39 267.183 1200.82 268.363C1199.25 268.882 1197.91 270.002 1196.19 270.215C1194.72 270.397 1193.29 271.431 1191.84 272.106C1188.15 273.829 1184.42 275.431 1180.88 277.612C1178.57 279.032 1176.11 280.124 1173.37 281.544L1170.09 280.726C1170.29 279.808 1170.23 278.749 1171.35 277.969L1169.38 277.202C1168.71 274.297 1169.17 271.464 1170.33 268.315L1172.4 267.335L1174.28 266.983C1174.21 265.919 1174.16 265.12 1174.12 264.366C1175.13 263.418 1176.09 262.395 1177.16 261.554C1178.07 260.837 1178.44 259.161 1180.11 259.807L1179.55 258.725C1180.97 258.482 1181.22 256.102 1182.98 256.51C1183.17 255.973 1183.35 255.49 1183.55 254.92L1184.36 254.909C1186.53 251.478 1189.62 249.11 1192.59 246.487C1192.65 246.256 1192.64 245.845 1192.82 245.644C1193.54 244.835 1194.28 243.596 1195.09 243.437C1196.42 243.182 1196.86 241.13 1198.4 241.659C1198.63 240.906 1198.84 240.209 1199.07 239.461L1200.19 239.29C1200.3 238.925 1200.42 238.527 1200.6 237.912L1203.53 235.979C1203.65 236.756 1203.72 237.218 1203.81 237.855C1204.47 237.179 1205.06 236.569 1205.66 235.959C1205.57 235.603 1205.47 235.248 1205.32 234.683C1205.83 234.493 1206.36 234.419 1206.75 234.118C1207.09 233.856 1207.29 233.339 1207.55 232.941L1207.15 231.633L1208.9 230.996L1210.16 231.78L1210.48 230.504C1211.56 230.165 1212.31 229.938 1212.92 228.618C1213.94 226.374 1215.74 224.634 1217.25 222.725C1217.48 222.433 1218.05 222.469 1218.45 222.355L1218.24 221.826C1219.27 220.987 1220.14 220.057 1221.15 219.507C1222.18 218.948 1223.36 218.762 1224.75 218.324C1225.17 217.697 1224.63 217.374 1223.06 217.349L1225.12 216.228L1226.3 217.359L1226.11 215.064L1226.86 214.366C1226.67 214.028 1226.49 213.336 1226.23 213.308C1224.93 213.172 1224.16 212.249 1223.38 211.456C1221.22 211.559 1219.77 209.846 1217.96 209.141C1215.95 208.399 1214.02 207.433 1212.2 206.257C1210.49 205.106 1208.77 203.875 1206.91 203.199C1204.93 202.48 1203.28 201.181 1201.41 200.32C1199.5 199.396 1197.67 198.278 1195.96 196.979C1194.29 195.764 1192.38 195.055 1190.71 193.798C1189 192.501 1187.18 191.376 1185.28 190.436C1183.42 189.525 1181.93 188.052 1180.16 187.038C1178.39 186.027 1176.67 184.914 1174.98 183.747C1173.23 182.535 1171.57 181.187 1169.84 179.929C1168.19 178.721 1166.51 177.553 1164.69 176.266L1163.44 173.815L1164.09 173.303C1164.51 171.978 1163.49 171.739 1163.03 171.248C1163.15 169.841 1163.26 168.524 1163.38 167.101L1163.97 166.659C1163.1 164.695 1164.42 163.533 1165.55 162.506C1166.68 161.468 1168.02 160.729 1169.36 159.798C1172.11 160.034 1175.02 158.15 1177.81 159.834L1178.34 158.655L1183.88 158.982C1183.92 158.913 1184.1 158.579 1184.24 158.331C1185.89 158.227 1187.49 158.081 1189.08 158.048C1189.71 158.036 1190.54 158.037 1190.91 158.448C1191.29 158.937 1191.8 159.275 1192.38 159.419C1192.95 159.562 1193.57 159.504 1194.13 159.252C1194.74 159.035 1195.47 159.369 1196.24 159.018L1194.08 158.48C1194.33 158.141 1194.47 157.883 1194.51 157.9C1195.92 158.41 1197.4 158.114 1198.82 157.942C1200.01 157.798 1201.29 157.882 1201.96 158.589C1202.82 159.505 1203.83 159.228 1205.05 160.086L1204.66 158.899C1206.59 158.107 1207.35 157.943 1208.45 158.985C1209.33 159.82 1210.3 159.582 1211.32 159.556L1208.69 158.527L1213.77 158.558C1209.99 155.23 1207.51 151.288 1204.66 147.725C1201.76 144.098 1200.53 141.945 1199.12 138.183C1198.86 137.499 1198.21 137.036 1197.91 136.368C1197.38 135.211 1197.06 133.913 1196.49 132.788C1195.96 131.755 1195.07 130.965 1194.6 129.905C1193.37 127.098 1192.57 124.043 1191.16 121.326C1191.03 121.059 1191.28 120.514 1191.36 120.052C1191.04 119.681 1190.53 119.349 1190.37 118.853C1189.61 116.43 1188.8 114.013 1188.31 111.496C1187.92 109.497 1187.39 107.545 1187.13 105.464C1186.89 103.407 1187.25 101.446 1187.26 99.467C1187.26 97.4214 1188.24 95.4638 1189.56 93.6553C1191.02 96.054 1193.45 94.0862 1195.38 94.7075L1192.67 93.7716L1192.83 93.2752L1194.65 93.7292C1195.2 93.8664 1195.75 94.0146 1196.3 94.1376C1196.92 94.2754 1197.55 94.6567 1198.16 93.9695C1198.27 94.9827 1199.2 94.058 1199.44 94.5556C1199.88 95.4477 1200.56 93.9589 1201.05 94.7515C1201.4 95.179 1201.86 95.4832 1202.36 95.6318C1202.96 95.8318 1203.56 95.9899 1204.18 96.1052L1204.26 97.6832L1205.03 96.3919L1206.25 96.573L1207.48 98.9624L1208.66 99.1799L1209.41 97.975C1209.5 98.5623 1209.56 99.0123 1209.63 99.4615L1210.24 99.612L1211.1 98.4345C1212.54 99.416 1213.8 100.628 1215.54 101.012C1216.33 101.186 1216.97 102.039 1217.75 102.642L1218.13 102.444L1222.37 104.991L1220.68 105.921C1221.44 106.274 1222.29 106.363 1223.13 106.177C1223.19 106.251 1223.24 106.328 1223.29 106.409C1223.39 106.586 1223.48 106.769 1223.59 106.981C1223.75 106.859 1223.91 106.733 1224.07 106.617C1224.15 106.564 1224.24 106.516 1224.33 106.474L1226.52 107.975L1225.83 110.742L1226.15 111.041C1226.47 110.701 1226.8 110.36 1227.26 109.877L1226.94 108.316L1230.02 110.083L1229.97 111.094C1231.62 110.365 1232.42 111.489 1233.23 112.665C1233.5 113.044 1233.83 113.362 1234.2 113.607C1235.02 114.152 1235.87 114.631 1236.88 115.24C1236.88 115.279 1236.88 115.576 1236.88 116.19L1239.02 116.55C1238.9 116.361 1239 116.652 1239.18 116.788C1240.7 117.882 1242.34 118.765 1243.76 120.009C1243.9 120.125 1244.12 120.112 1244.28 120.204C1245.31 120.799 1245.4 122.555 1246.73 122.752C1247.91 122.925 1248.37 124.146 1249.25 124.745C1250.21 125.39 1251.1 126.139 1252.01 126.86C1252.25 127.128 1252.51 127.374 1252.79 127.596C1253.2 127.754 1253.62 127.866 1254.05 127.931L1254.57 129.39L1256.43 129.855C1257.21 131.453 1257.96 133.086 1259.82 133.39C1260 133.406 1260.17 133.501 1260.28 133.654C1261.34 136.08 1263.81 136.696 1265.32 138.611C1266.78 140.457 1268.81 141.708 1270.42 143.412C1272.56 145.67 1274.55 148.11 1276.59 150.485C1276.79 150.708 1276.93 150.986 1277 151.295C1277.56 154.067 1278.09 156.848 1278.57 159.365C1277.92 160.846 1277.39 162.063 1276.7 163.631L1274.5 164.478C1273.19 163.46 1271.88 162.548 1270.68 161.471C1269.46 160.402 1268.32 159.224 1267.27 157.948C1265.01 155.136 1262.22 153.007 1259.8 150.42C1258.37 148.89 1256.5 147.869 1255.5 145.824C1252.51 144.04 1250.14 141.379 1247.5 139.086C1246.36 138.095 1245.35 136.888 1244.04 136.104C1242.84 135.382 1241.74 134.439 1240.59 133.598C1237.01 130.969 1233.43 128.321 1229.83 125.724C1227.95 124.37 1226.04 123.068 1224.11 121.816C1222.16 120.558 1220.04 119.519 1218.19 118.188C1214.93 115.855 1211.2 114.668 1207.9 112.498C1206.15 111.353 1204 110.91 1201.99 110.295C1200.03 109.694 1198.02 109.279 1195.46 108.64Z" fill="black"/>
<path d="M1292.27 462.346L1292.08 460.499L1292.48 459.898C1292.41 458.717 1292.33 457.581 1292.28 456.438C1292.24 455.473 1292.28 454.487 1292.18 453.537C1292.08 452.481 1292.09 451.4 1291.94 450.344C1291.8 449.39 1291.38 448.458 1291.59 447.432C1291.83 446.238 1291.18 445.382 1291.22 444.268C1291.21 443.242 1291.16 442.227 1291.05 441.225L1290.7 441.326C1290.14 438.404 1289.64 435.44 1288.18 432.774L1288.39 432.045L1287.8 432.146C1287.13 430.629 1286.35 429.145 1285.73 427.604C1284.97 425.708 1283.77 424.1 1283.3 422.007C1283.01 420.936 1282.5 419.983 1281.8 419.214C1281.39 418.743 1281.75 418.422 1281.77 417.985L1280.94 418.018L1279.31 414.302L1280.19 414.002C1280.24 413.292 1280.8 412.486 1279.88 411.553L1281.48 411.873L1281.24 410.208L1280.38 410.24L1279.9 409.058C1280.04 408.904 1280.17 408.682 1280.25 408.685C1280.85 408.708 1281.45 408.777 1282.04 408.831C1282.85 407.953 1281.99 407.5 1281.92 406.852L1282.42 406.707L1282.62 405.711L1284.76 405.493C1286.28 406.331 1287.94 407.461 1289.79 408.168C1290.74 408.533 1291.55 409.307 1292.51 409.382C1293.69 409.475 1294.24 410.52 1295.23 410.67C1296.32 410.835 1297.02 411.677 1297.97 411.896C1299.02 412.136 1299.74 412.928 1300.7 413.15C1302.97 413.677 1304.87 415.098 1307.28 415.246C1307.88 416.015 1309.2 415.731 1309.59 416.803C1310.79 416.739 1311.81 417.202 1312.86 417.589C1314.33 418.136 1316.03 418.121 1317.39 419.007C1317.77 419.257 1318.39 419.156 1319.21 419.252L1315.6 414.434L1315.6 412.833L1314.08 412.427C1313 410.655 1311.16 409.319 1310.83 406.847C1309.79 407.264 1309.43 406.167 1308.72 406.001C1307.64 403.631 1305.74 402.18 1304.07 400.134C1304.07 400.089 1304.05 399.705 1304.02 399.339C1303.51 398.495 1302.41 398.421 1302.03 397.329C1301.77 396.536 1300.99 395.88 1300.25 395.507C1299.41 395.065 1298.76 394.351 1298.36 393.45C1297.92 392.471 1297.02 392.321 1296.41 391.556C1296.4 391.294 1296.37 390.909 1296.34 390.377C1294.5 389.41 1293.03 387.839 1291.34 386.462L1291.38 385.216L1289.6 384.019L1290.64 383.634C1289.68 383.137 1289.56 382.229 1289.62 381.12C1289.84 380.989 1290.1 380.838 1290.31 380.71L1289.87 375.799C1290.37 375.339 1290.75 374.989 1291.25 374.538L1292.07 374.596L1292.4 374.113L1291.9 373.376C1292.65 372.104 1293.8 371.702 1294.99 371.421C1295.9 371.8 1295.9 371.8 1297.26 370.971L1296.19 370.968C1296.28 370.754 1296.37 370.511 1296.51 370.174L1297.74 370.719C1297.75 370.422 1297.75 370.225 1297.75 370.08L1301.93 368.148L1302.7 368.668L1302.68 367.816L1303.5 367.99L1304.09 367.114C1304.5 366.997 1304.79 366.912 1305.08 366.826C1305.21 367.456 1305.77 367.941 1305.35 368.754C1306.53 368.205 1306.09 367.326 1306.08 366.355L1307.04 366.863C1308.04 366.304 1309.11 365.957 1309.93 364.806C1310.61 363.847 1311.74 363.911 1312.82 364.063L1312.85 363.213L1313.93 363.625C1313.99 363.52 1314.07 363.363 1314.31 362.899C1315 362.574 1316.05 362.286 1316.89 361.633C1318.07 360.702 1319.43 361.038 1320.63 360.065C1321.69 359.212 1322.95 358.67 1324.25 358.232C1326.01 357.633 1327.71 356.602 1329.56 355.696L1328.61 355.055C1328.4 355.2 1328.1 355.408 1327.69 355.693L1327.32 354.622C1326.65 354.593 1325.98 354.612 1325.31 354.678C1324.73 354.767 1324.09 354.388 1323.58 355.155C1323.06 354.507 1322.32 354.849 1321.63 355.04L1321.58 354.552C1319.06 355.242 1316.63 355.145 1314.22 354.854L1311.81 355.61L1311.24 355.223L1307.79 355.618C1307.88 355.064 1307.94 354.669 1308.01 354.161L1305.98 354.172L1305.29 355.836L1300.39 356.228C1301.08 355.528 1301.58 355.551 1302.06 355.354C1301.72 354.391 1300.97 355.173 1300.43 355.167C1300.36 354.906 1300.29 354.645 1300.14 354.089L1299.15 355.038L1299.09 354.552L1298.94 355.646L1297.24 355.548L1297.12 354.811L1296.44 354.975C1296.15 355.598 1295.83 356.26 1295.55 356.863C1293.5 356.903 1291.55 356.942 1289.59 356.981C1289.58 356.893 1289.58 356.804 1289.57 356.716L1290.48 356.29L1287.69 355.185C1288.03 354.259 1288.34 353.403 1288.8 352.16L1288.57 351.132C1291.22 350.956 1293.72 350.188 1296.21 349.614C1299.65 348.818 1303.03 348.719 1306.44 348.159C1310 347.575 1313.55 347.489 1317.1 347.175C1319.12 346.996 1321.15 346.75 1323.17 346.614C1326.01 346.422 1328.85 346.185 1331.65 346.211C1332.89 346.223 1334.13 345.748 1335.38 346.015C1336.45 346.245 1337.73 345.854 1338.92 345.724C1341.96 345.391 1344.99 345.153 1348.05 344.454C1350.04 343.999 1352.04 343.816 1354.33 343.467L1356.4 344.86C1356.01 345.47 1355.77 346.248 1354.78 346.533L1355.94 347.568C1355.63 349.821 1354.54 351.744 1352.88 353.723L1351.17 353.92L1349.77 353.713C1349.53 354.493 1349.35 355.08 1349.18 355.633C1348.22 356.066 1347.27 356.566 1346.3 356.909C1345.47 357.201 1344.76 358.315 1343.77 357.441L1343.87 358.355C1342.82 358.183 1342 359.832 1340.89 359.109C1340.61 359.447 1340.35 359.751 1340.05 360.11L1339.49 359.921C1337.05 361.853 1334.26 362.799 1331.48 363.956C1331.38 364.107 1331.27 364.405 1331.1 364.506C1330.37 364.91 1329.53 365.621 1328.92 365.535C1327.92 365.393 1327.06 366.759 1326.13 366.001C1325.77 366.487 1325.43 366.936 1325.07 367.418L1324.25 367.267C1324.07 367.502 1323.88 367.759 1323.59 368.157L1321.02 368.826C1321.15 368.239 1321.23 367.891 1321.34 367.41C1320.7 367.734 1320.12 368.027 1319.54 368.32C1319.51 368.598 1319.48 368.877 1319.43 369.319C1319.02 369.33 1318.64 369.256 1318.28 369.376C1317.97 369.48 1317.7 369.803 1317.41 370.026L1317.33 371.065L1315.94 371.092L1315.27 370.22L1314.71 371.059C1313.87 371.038 1313.28 371.015 1312.5 371.817C1311.18 373.179 1309.46 373.989 1307.89 374.99C1307.65 375.143 1307.27 374.979 1306.95 374.962L1306.96 375.394C1306.02 375.746 1305.16 376.201 1304.31 376.347C1303.44 376.496 1302.57 376.341 1301.48 376.315C1301.02 376.663 1301.3 377.026 1302.39 377.431L1300.66 377.732L1300.14 376.629L1299.65 378.326L1298.94 378.643C1298.98 378.933 1298.92 379.473 1299.09 379.558C1299.96 379.974 1300.25 380.827 1300.58 381.588C1302.11 382.045 1302.66 383.631 1303.73 384.581C1304.93 385.608 1306.01 386.776 1306.96 388.068C1307.85 389.315 1308.71 390.621 1309.82 391.564C1311.01 392.565 1311.8 393.902 1312.88 394.982C1313.96 396.115 1314.93 397.366 1315.77 398.72C1316.61 400.003 1317.74 400.979 1318.57 402.292C1319.41 403.645 1320.37 404.899 1321.44 406.041C1322.5 407.154 1323.13 408.577 1324.1 409.74C1325.05 410.901 1325.95 412.123 1326.81 413.375C1327.7 414.675 1328.5 416.054 1329.36 417.38C1330.19 418.655 1331.04 419.907 1331.96 421.276L1332.17 423.346L1331.58 423.554C1330.93 424.404 1331.57 424.825 1331.76 425.29C1331.3 426.272 1330.86 427.192 1330.4 428.185L1329.87 428.359C1329.95 429.986 1328.71 430.495 1327.65 430.958C1326.58 431.427 1325.45 431.629 1324.27 431.971C1322.41 431.126 1319.87 431.766 1318.38 429.871L1317.7 430.589L1313.93 428.996C1313.88 429.036 1313.67 429.231 1313.5 429.376C1312.33 429.046 1311.17 428.759 1310.05 428.391C1309.61 428.246 1309.04 428.043 1308.89 427.656C1308.75 427.211 1308.49 426.842 1308.13 426.598C1307.76 426.354 1307.32 426.246 1306.86 426.288C1306.38 426.295 1305.96 425.874 1305.33 425.94L1306.69 426.856C1306.42 427.038 1306.26 427.189 1306.23 427.166C1305.39 426.455 1304.28 426.304 1303.24 426.08C1302.37 425.891 1301.5 425.517 1301.23 424.846C1300.88 423.976 1300.1 423.928 1299.48 423.011L1299.43 423.96C1297.87 424.056 1297.3 423.987 1296.81 422.968C1296.42 422.151 1295.69 422.086 1294.97 421.854L1296.52 423.238L1292.99 421.97C1294.73 425.291 1295.39 428.733 1296.42 431.993C1297.46 435.311 1297.73 437.161 1297.7 440.21C1297.69 440.764 1298.02 441.257 1298.05 441.812C1298.11 442.774 1297.98 443.785 1298.07 444.733C1298.16 445.605 1298.57 446.392 1298.61 447.268C1298.71 449.588 1298.44 451.98 1298.69 454.279C1298.71 454.505 1298.39 454.833 1298.21 455.146C1298.33 455.491 1298.6 455.856 1298.57 456.251C1298.45 458.178 1298.36 460.115 1298.02 462.045C1297.75 463.578 1297.6 465.112 1297.21 466.67C1296.83 468.21 1296.05 469.529 1295.51 470.951C1294.95 472.42 1293.74 473.588 1292.34 474.564C1291.97 472.481 1289.74 473.299 1288.57 472.381L1290.2 473.717L1289.96 474.036L1288.81 473.263C1288.47 473.029 1288.12 472.789 1287.77 472.565C1287.38 472.314 1287.04 471.885 1286.43 472.23C1286.63 471.474 1285.73 471.91 1285.7 471.493C1285.63 470.746 1284.76 471.648 1284.63 470.958C1284.5 470.565 1284.26 470.234 1283.95 470.003C1283.59 469.714 1283.21 469.452 1282.82 469.218L1283.18 468.063L1282.3 468.803L1281.49 468.372L1281.28 466.354L1280.52 465.908L1279.68 466.592C1279.77 466.148 1279.85 465.807 1279.92 465.467L1279.54 465.211L1278.62 465.845C1277.88 464.787 1277.33 463.606 1276.22 462.903C1275.72 462.585 1275.51 461.816 1275.13 461.192L1274.81 461.241L1272.54 458.37L1273.97 458.114C1273.53 457.674 1272.97 457.402 1272.33 457.331C1272.31 457.264 1272.3 457.194 1272.28 457.124C1272.26 456.973 1272.25 456.819 1272.23 456.64C1272.09 456.688 1271.94 456.74 1271.8 456.784C1271.72 456.801 1271.65 456.814 1271.58 456.823L1270.46 455.208L1271.69 453.388L1271.54 453.094C1271.23 453.259 1270.91 453.424 1270.46 453.658L1270.26 454.86L1268.59 452.832L1268.9 452.119C1267.55 452.237 1267.29 451.232 1267.05 450.189C1266.96 449.851 1266.82 449.542 1266.63 449.275C1266.2 448.683 1265.74 448.129 1265.2 447.444C1265.21 447.416 1265.29 447.202 1265.45 446.759L1264.06 445.977C1264.09 446.141 1264.11 445.91 1264.01 445.766C1263.25 444.608 1262.35 443.572 1261.69 442.327C1261.63 442.211 1261.47 442.166 1261.39 442.062C1260.83 441.381 1261.24 440.096 1260.37 439.627C1259.59 439.214 1259.6 438.224 1259.15 437.576C1258.66 436.88 1258.24 436.122 1257.8 435.382C1257.7 435.129 1257.59 434.887 1257.45 434.659C1257.21 434.446 1256.95 434.262 1256.67 434.11L1256.7 432.935L1255.53 432.142C1255.42 430.805 1255.33 429.445 1254.12 428.77C1254 428.714 1253.91 428.606 1253.87 428.469C1253.79 426.465 1252.23 425.415 1251.7 423.668C1251.18 421.984 1250.11 420.588 1249.44 418.966C1248.56 416.819 1247.83 414.577 1247.05 412.369C1246.98 412.161 1246.95 411.926 1246.98 411.686C1247.35 409.557 1247.73 407.429 1248.07 405.501C1248.92 404.595 1249.62 403.851 1250.52 402.892L1252.29 402.823C1252.92 403.875 1253.59 404.854 1254.14 405.922C1254.7 406.99 1255.17 408.116 1255.56 409.291C1256.37 411.865 1257.74 414.08 1258.73 416.533C1259.32 417.985 1260.34 419.178 1260.49 420.892C1262.09 422.907 1263.02 425.402 1264.24 427.697C1264.77 428.688 1265.14 429.803 1265.84 430.689C1266.49 431.504 1267 432.45 1267.57 433.336C1269.36 436.105 1271.13 438.885 1272.94 441.636C1273.88 443.069 1274.86 444.473 1275.87 445.849C1276.89 447.231 1278.09 448.497 1279.02 449.909C1280.65 452.383 1282.93 454.152 1284.65 456.522C1285.56 457.772 1286.94 458.619 1288.17 459.554C1289.37 460.466 1290.66 461.258 1292.27 462.346Z" fill="black"/>
<path d="M317.987 195.787C319.171 189.863 319.265 185.01 318.491 179.075C318.31 177.685 316.69 171.205 319.729 173.48C325.756 177.992 329.557 185.279 334.436 190.961C336.334 193.171 340.876 190.984 343.233 190.601C346.665 190.042 350.059 189.493 353.336 188.223C353.812 188.039 356.506 186.238 355.833 186.999C351.355 192.068 348.435 199.073 345.639 205.2C342.697 211.647 341.698 211.131 346.532 216.198C349.41 219.214 352.306 222.171 355.444 224.891C355.873 225.263 359.612 227.723 357.483 227.772C350.698 227.93 344.564 228.428 337.918 230.27C336.414 230.687 334.95 231.152 333.634 232.047C333.303 232.272 332.616 233.256 332.741 232.863C333.073 231.82 331.521 229.485 331.183 228.541C330.315 226.113 329.886 217.928 325.937 220.064C323 221.653 320.252 223.597 317.506 225.515C316.414 226.279 313.551 229.117 312.077 229.117C311.774 229.117 311.377 209.399 310.886 207.217C310.163 204.004 309.077 204.931 307.449 203.111C304.081 199.345 298.775 198.074 295.216 194.563C294.227 193.588 296.942 194.431 297.163 194.515C299.994 195.594 302.973 195.964 305.983 196.124C307.387 196.198 317.163 196.323 317.163 194.491" stroke="#F44618" stroke-width="10"/>
<path d="M320.462 203.135C318.425 204.393 316.264 205.527 315.101 207.794C315.062 207.871 313.967 210.494 314.528 210.363C316.457 209.914 317.894 203.742 318.308 202.175C318.476 201.541 319.933 195.525 318.538 196.988C316.577 199.043 314.23 204.071 314.78 207.073C315.381 210.347 323.326 198.751 320.187 197.612C318.353 196.947 315.536 201.756 314.758 202.871C314.265 203.577 312.226 207.542 314.666 205.465C315.37 204.865 317.106 201.964 316.659 200.974C316.009 199.535 313.762 201.215 313.291 201.839C312.854 202.418 310.993 205.977 311.986 206.497C313.414 207.246 315.495 202.045 315.857 201.262C318.194 196.211 312.992 198.748 312.65 202.871C312.36 206.36 317.977 199.376 314.597 199.245C313.014 199.184 312.45 199.898 311.596 201.19C311.123 201.906 311.024 203.47 311.802 202.175C313.144 199.941 311.48 195.7 309.74 199.245C308.155 202.476 311.636 201.251 310.474 198.813C308.739 195.176 306.377 202.562 308.068 200.494C310.07 198.045 305.617 197.527 305.617 199.437C305.617 200.894 307.419 198.366 304.792 197.973C304.474 197.925 302.59 197.997 303.326 198.813C304.245 199.834 305.894 199.644 307.083 199.894C311.374 200.793 315.119 201.839 319.546 201.839C322.048 201.839 322.767 200.865 319.958 200.974C319.803 200.98 315.864 201.286 317.667 200.446C319.118 199.77 320.074 198.323 321.287 197.324C322.66 196.193 321.862 197.767 321.791 197.757C321.43 197.702 324.238 188.623 320.485 197.228C318.587 201.579 326.41 191.596 324.769 191.105C322.871 190.537 320.666 200.497 324.517 191.921C326.775 186.892 323.257 187.59 321.951 191.849C320.844 195.458 326.568 188.374 324.906 186.807C322.857 184.874 319.171 198.298 322.524 191.993C322.831 191.415 326.006 182.374 322.844 184.742C321.704 185.595 320.92 188.023 320.92 189.472C320.92 189.9 322.344 186.608 322.432 185.894C322.499 185.353 322.902 181.223 321.493 182.701C320.545 183.694 319.868 187.94 320.691 186.831C321.677 185.501 321.74 183.551 321.699 181.956C321.662 180.512 320.874 180.468 320.874 181.98C320.874 183.43 321.328 184.178 321.287 182.292C321.256 180.896 319.408 177.198 319.408 178.594C319.408 180.35 324.045 183.899 322.34 180.227C321.89 179.256 319.126 177.066 320.37 178.979C322.252 181.871 324.95 184.217 326.854 187.167C327.563 188.267 329.646 191.366 328.526 190.745C326.788 189.781 325.572 186.967 324.815 185.222C324.701 184.959 323.308 180.837 323.348 180.852C325.353 181.552 327.349 187.401 328.136 189.184C329.572 192.435 330.881 195.799 332.741 198.813C333.851 200.611 331.908 194.501 330.748 192.738C330.197 191.901 325.593 184.079 326.739 188.007C328.099 192.667 330.206 197.061 331.092 201.887C331.188 202.414 329.434 197.529 328.847 196.316C328.071 194.715 322.752 184.464 322.707 191.609C322.673 197.137 324.526 203.762 326.647 208.826C328.527 213.313 328.134 204.28 328.022 203.472C327.893 202.54 325.475 190.904 323.967 191.633C321.27 192.938 323.122 204.374 323.532 206.497C323.662 207.171 324.326 211.105 325.502 211.156C327.896 211.258 328.824 200.858 328.984 199.293C329.326 195.946 328.481 188.048 324.975 194.611C322.765 198.747 318.409 209.867 321.058 214.661C322.403 217.098 324.31 211.143 324.379 210.411C324.624 207.844 323.088 201.009 319.5 204.288C317.057 206.52 314.941 213.821 316.201 217.183C316.984 219.271 319.224 215.937 319.546 215.238C320.391 213.397 320.997 209.214 319.775 207.506C316.169 202.466 312.396 217.255 316.751 216.534C321.078 215.818 316.734 204.574 313.864 212.26C313.117 214.262 312.364 217.701 314.483 219.104C315.205 219.582 316.804 220.002 317.369 219.08C317.715 218.516 318.621 215.787 317.804 215.334C316.576 214.652 315.58 219.284 315.536 219.968C315.188 225.452 317.596 214.736 314.689 217.783C313.331 219.206 313.354 224.719 315.284 222.057C318.014 218.293 313.582 224.974 314.689 223.882C315.584 222.999 316.431 222.056 317.3 221.145C318.293 220.104 315.476 223.411 314.368 224.315C312.997 225.433 314.443 223.776 314.964 223.186C317.487 220.329 320.372 218.161 323.257 215.742C328.454 211.384 319.824 220.809 319.912 220.809C321.721 220.809 324.665 217.01 325.96 215.958C326.939 215.163 330.112 212.726 327.816 215.334C325.826 217.593 323.893 219.496 321.378 221.097C320.498 221.657 323.591 218.982 323.99 218.672C324.86 217.994 331.979 210.724 332.512 212.836C333.204 215.576 332.221 218.651 333.658 221.193C335.398 224.272 328.921 214.896 329.122 217.063C329.359 219.639 331.817 222.062 333.222 224.05C333.456 224.381 335.35 227.174 335.307 225.611C335.243 223.266 333.117 220.704 332.031 218.768C331.641 218.072 329.823 214.951 329.969 217.327C330.08 219.135 330.144 222.377 332.008 223.354C333.083 223.917 331.431 217.653 331.069 217.039C330.372 215.858 326.821 210.628 327.151 211.108C329.224 214.116 330.967 217.605 332.558 220.905C333.371 222.591 334.071 225.699 335.513 226.908C336.229 227.508 334.583 226.908 334.482 226.908C333.131 226.908 335.937 228.637 336.75 228.637C338.417 228.637 336.861 227.793 335.903 227.772C334.087 227.733 337.093 227.666 337.575 227.556C339.715 227.069 341.558 226.043 343.76 226.043C345.891 226.043 348.022 226.043 350.152 226.043C351.891 226.043 353.394 226.829 350.564 225.947C348.106 225.181 345.991 222.938 344.058 221.289C341.884 219.434 339.38 217.696 337.69 215.334C336.4 213.532 341.587 217.232 343.508 218.239C345.601 219.336 347.665 220.538 349.74 221.625C352.872 223.267 343.808 217.617 341.332 215.022C340.533 214.184 339.45 211.819 339.041 210.747C338.165 208.451 342.095 214.521 343.692 216.342C346.065 219.049 348.252 221.418 351.16 223.45C352.578 224.441 351.726 224.23 350.794 223.69C348.78 222.524 347.374 220.58 345.158 219.776C342.529 218.822 339.175 218.849 336.498 219.56C335.056 219.943 334.34 222.015 336.223 221.097C338.717 219.881 339.323 215.23 338.537 212.812C337.053 208.243 335.898 210.143 336.223 213.989C336.41 216.2 337.857 222.913 340.416 223.738C341.555 224.106 341.54 218.842 341.492 218.263C341.322 216.187 337.793 212.618 337.025 216.174C336.581 218.23 336.604 221.072 337.644 222.946C338.012 223.61 339.654 224.85 340.347 223.93C342.234 221.425 343.023 215.336 342.432 212.308C341.592 208.004 339.044 210.281 338.812 213.341C338.657 215.393 339.208 221.525 342.638 219.368C344.573 218.151 345.999 213.752 345.502 211.492C344.688 207.798 341.228 214.778 341.08 215.382C340.579 217.423 339.113 223.316 342.478 223.858C343.469 224.018 346.787 226.428 346.097 226.428C343.877 226.428 340.433 225.016 338.789 223.45C338.092 222.786 338.172 219.619 338.01 218.744C337.349 215.156 337.431 212.208 337.964 208.61C338.647 204.01 336.039 212.163 335.811 212.981C335.697 213.39 334.064 220.171 335.147 218.6C337.622 215.007 339.491 210.86 341.309 206.881C344.409 200.101 340.724 210.056 340.095 211.972C339.734 213.072 337.276 219.337 339.614 219.56C341.81 219.769 342.218 222.501 343.967 219.752C348.408 212.77 350.321 203.384 353.543 195.787C353.937 194.857 354.636 193.254 354.688 192.33C354.729 191.599 354.714 191.413 355.078 190.841C356.239 189.015 353.333 194.835 352.603 196.892C350.796 201.984 346.871 206.495 345.616 211.756C344.912 214.707 347.127 209.532 347.357 208.994C348.689 205.876 349.685 202.553 351.068 199.485C352.4 196.534 353.054 193.047 354.688 190.265C356.679 186.873 353.317 196.615 353.039 197.516C351.848 201.366 348.3 212.877 349.007 208.898C349.739 204.772 351.283 200.742 352.397 196.724C353.193 193.856 355.1 190.445 355.1 187.431C355.1 184.087 354.186 194.074 353.268 197.276C351.816 202.334 349.263 206.927 347.288 211.756C346.005 214.894 344.896 217.489 346.762 212.644C348.869 207.172 350.983 201.578 352.626 195.932C353.169 194.068 353.496 192.14 354.07 190.289C354.144 190.05 355.233 187.274 355.009 188.968C354.325 194.141 352.977 199.286 351.824 204.36C350.896 208.447 350.044 212.754 348.732 216.727C348.136 218.532 348.192 216.683 348.388 215.862C349.155 212.648 350.238 209.528 350.977 206.305C351.78 202.801 352.729 199.034 353.016 195.427C353.262 192.334 350.168 202.195 349.969 202.703C348.282 207.016 346.252 211.158 344.196 215.286C343.811 216.057 342.527 218.945 343.211 216.366C345.025 209.519 347.599 202.847 349.556 196.028C350.85 191.522 346.12 202.128 345.639 203.111C345.262 203.882 340.962 213.428 342.409 209.139C344.137 204.016 346.749 199.292 348.846 194.347C350.586 190.243 343.943 201.726 341.79 205.609C338.561 211.434 342.527 206.08 343.967 204.096C344.816 202.926 351.823 190.714 351.298 190.577C350.161 190.279 342.891 204.179 341.905 205.633C340.064 208.345 341.392 206.208 342.34 204.816C343.784 202.697 345.016 200.521 346.12 198.189C346.794 196.764 348.092 194.75 348.136 193.098C348.19 191.054 345.595 196.213 344.494 197.901C342.009 201.706 335.112 213.504 337.552 209.667C340.471 205.077 343.462 200.274 345.57 195.211C345.906 194.405 347.077 191.826 345.57 193.866C343.164 197.126 340.983 200.567 338.812 204C338.16 205.031 332.125 215.285 334.94 209.283C336.183 206.633 337.452 203.979 338.835 201.406C339.509 200.153 343.045 195.791 342.661 194.179C342.464 193.351 341.536 195.426 341.103 196.148C338.82 199.952 336.888 203.967 334.803 207.89C334.216 208.994 332.604 210.988 332.604 212.356C332.604 215.412 335.719 207.186 337.117 204.504C338.055 202.704 343.877 190.707 338.881 198.093C336.414 201.739 334.173 205.787 331.481 209.235C329.498 211.775 333.669 203.064 335.124 200.158C335.827 198.753 336.863 196.596 335.032 199.173C332.986 202.054 331.428 205.268 330.084 208.562C327.319 215.338 332.008 206.42 332.879 204.768C334.316 202.042 335.833 199.343 337.163 196.556C337.41 196.037 338.192 194.01 337.186 195.547C335 198.886 332.658 202.275 330.84 205.849C329.272 208.93 334.49 199.984 335.948 196.844C337.156 194.243 334.091 197.568 333.703 198.381C332.164 201.609 336.723 199.022 337.69 198.381C338.84 197.617 342.58 196.22 341.218 196.22C338.318 196.22 334.829 196.782 332.008 196.004C330.312 195.536 335.501 196.475 337.186 196.988C341.183 198.206 337.124 196.092 335.696 195.379C334.161 194.613 330.418 192.543 332.42 195.787C333.743 197.93 335.73 198.152 338.079 198.357C339.851 198.512 334.979 194.707 334.253 194.251C332.416 193.095 338.459 195.213 340.599 195.331C344.324 195.537 340.515 195.35 339.064 195.259C338.4 195.218 330.244 194.923 334.07 194.923C336.472 194.923 334.556 194.909 333.314 194.179C332.316 193.592 326.805 188.551 329.626 190.697C330.487 191.352 336.045 197.263 333.635 194.251C332.973 193.424 329.388 188.955 330.817 192.378C332.675 196.829 332.466 205.937 328.618 209.331C326.213 211.451 325.999 206.191 324.334 205.609C320.921 204.416 316.386 211.788 315.422 214.421C315.024 215.509 314.689 216.799 314.689 217.975C314.689 219.307 315.797 215.578 316.338 214.373" stroke="#F44618" stroke-width="10"/>
<path d="M324.173 207.89C323.989 208.709 322.34 214.822 322.707 214.613C325.218 213.185 329.305 207.99 329.305 204.96C329.305 203.966 326.499 206.797 326.441 206.857C324.456 208.938 322.75 211.301 321.012 213.605C318.885 216.424 323.423 211.143 323.944 210.291C326.242 206.534 326.662 211.072 329.717 212.116C332.687 213.131 335.77 212.212 338.789 212.212C344.212 212.212 340.016 218.622 338.4 220.833C336.538 223.378 334.895 223.662 334.895 226.908C334.895 229.671 336.809 225.149 337.369 224.122C338.301 222.413 332.404 229.95 333.932 228.805C334.921 228.065 335.706 227.098 336.681 226.332C337.881 225.389 334.702 228.692 333.726 229.885C333.482 230.183 337.4 225.804 337.277 225.707C335.748 224.506 332.721 234.517 331.596 233.199C330.664 232.108 327.904 222.158 327.884 222.682C327.736 226.72 329.801 231.031 331.596 234.496C332.696 236.621 341.187 231.382 342.5 230.702C344.783 229.519 347.039 228.605 349.511 227.988C351.22 227.562 349.586 228.064 348.915 228.205" stroke="#F44618" stroke-width="10"/>
<path d="M323.348 199.245C320.75 200.97 318.585 202.956 315.513 203.135C315.11 203.159 314.614 203.68 314.78 202.943C315.486 199.819 316.467 196.834 316.979 193.65C317.756 188.819 319.637 174.319 319.637 179.219C319.637 180.63 319.209 181.689 318.4 182.821" stroke="#F44618" stroke-width="10"/>
<path d="M328.297 194.491C332.275 189.08 335.432 183.553 338.537 177.586C338.648 177.372 338.621 178.645 338.629 178.762C338.753 180.524 339.179 182.276 339.431 184.021C340.049 188.308 339.861 193.018 340.897 197.204C341.282 198.76 341.905 198.425 341.905 197.084" stroke="#F44618" stroke-width="10"/>
<path d="M336.544 190.168C336.483 190.499 334.319 201.88 334.986 196.988C335.343 194.368 335.928 191.649 336.727 189.136C336.872 188.68 335.412 189.589 335.948 187.983C336.255 187.065 337.897 182.376 337.689 183.637C337.133 187.005 336.131 190.426 336.131 193.866C336.131 196.617 337.717 191.625 337.758 190.793C337.782 190.3 337.909 184.959 337.162 186.35C335.923 188.66 335.719 192.304 335.719 194.923" stroke="#F44618" stroke-width="10"/>
<path d="M343.966 199.245C349.182 200.686 354.431 201.497 359.819 201.791C361.166 201.864 364.2 201.471 364.905 203.135C365.818 205.289 359.851 207.031 358.903 207.458C353.505 209.888 348.64 213.597 345.112 218.527C344.84 218.907 347.87 215.631 348.502 214.902C351.369 211.596 353.852 207.854 356.841 204.72C358.595 202.882 352.826 207.775 350.839 209.331C350.727 209.418 348.425 211.229 348.204 210.651C348.052 210.253 351.367 208.383 351.732 208.178C353.924 206.947 356.502 207.083 358.903 207.025C359.971 207 362.926 205.729 361.858 205.729C360.587 205.729 359.461 206.161 358.17 206.161C356.921 206.161 353.893 206.204 356.956 205.729C357.638 205.623 362.042 204.864 359.545 204.864C357.19 204.864 354.34 204.788 352.053 205.321C351.611 205.424 354.873 205.526 355.604 205.393C356.568 205.217 359.477 205.554 358.536 205.272C356.237 204.584 353.763 204.864 351.389 204.864" stroke="#F44618" stroke-width="10"/>
<path d="M342.317 192.33C343.474 192.172 349.977 190.033 351.16 191.273C352.208 192.372 350.521 193.172 349.762 193.386C347.52 194.019 345.25 194.877 342.913 194.923C339.501 194.99 345.844 195.355 346.441 195.355" stroke="#F44618" stroke-width="10"/>
<path d="M334.482 194.059C341.96 190.232 348.897 185.451 356.337 181.62C358.526 180.493 357.936 182.082 357.666 183.781C356.896 188.624 357.723 193.907 357.483 198.813C357.397 200.57 357.162 208.008 357.162 202.271" stroke="#F44618" stroke-width="10"/>
<path d="M354.275 186.711C352.852 189.666 348.3 198.374 349.694 195.403C350.653 193.358 351.717 191.33 352.718 189.304C353.228 188.27 356.095 183.72 352.947 186.278C350.673 188.126 348.524 190.126 346.303 192.041C345.744 192.524 343.138 194.869 345.524 193.434C346.681 192.738 353.237 186.26 354.069 188.296C355.889 192.745 355.08 198.269 354.711 202.919C354.423 206.533 357.841 193.942 354.894 192.041C353.9 191.4 351.597 200.045 351.229 201.118C350.455 203.372 351.594 199.897 351.801 199.245" stroke="#F44618" stroke-width="10"/>
</svg>
