<svg width="60" height="60" viewBox="0 0 60 60" fill="none" xmlns="http://www.w3.org/2000/svg">
<circle cx="30" cy="30" r="29" fill="white" stroke="black" stroke-width="2"/>
<g clip-path="url(#clip0_341_36)">
<path fill-rule="evenodd" clip-rule="evenodd" d="M44.9995 20.4595C43.8972 20.9615 42.7103 21.3009 41.4653 21.4525C42.7366 20.6725 43.7123 19.4355 44.1719 17.9622C42.9815 18.6845 41.6662 19.21 40.2609 19.4917C39.1411 18.2657 37.5403 17.5 35.7689 17.5C32.3721 17.5 29.6163 20.3259 29.6163 23.811C29.6163 24.3058 29.669 24.786 29.7747 25.2484C24.6597 24.9845 20.1255 22.4746 17.0878 18.652C16.5579 19.5873 16.2548 20.6725 16.2548 21.8282C16.2548 24.0168 17.3414 25.9488 18.993 27.081C17.9859 27.0503 17.0348 26.7632 16.2037 26.2937V26.3713C16.2037 29.4302 18.3255 31.9816 21.1429 32.5595C20.6271 32.7077 20.0829 32.7817 19.5211 32.7817C19.125 32.7817 18.7375 32.7437 18.3623 32.6697C19.1458 35.1761 21.4174 37.0016 24.1115 37.0504C22.0054 38.7442 19.3502 39.7534 16.4676 39.7534C15.971 39.7534 15.4797 39.7246 14.999 39.6667C17.7232 41.4543 20.9596 42.4998 24.4338 42.4998C35.7562 42.4998 41.9456 32.8844 41.9456 24.5439C41.9456 24.2695 41.9402 23.995 41.9296 23.7259C43.1329 22.8358 44.1771 21.7253 44.9995 20.4595Z" fill="black"/>
</g>
<defs>
<clipPath id="clip0_341_36">
<rect width="30" height="30" fill="white" transform="translate(15 15)"/>
</clipPath>
</defs>
</svg>
