<svg width="205" height="252" viewBox="0 0 205 252" fill="none" xmlns="http://www.w3.org/2000/svg">
<path d="M65.8127 244.826C66.9099 246.744 69.3537 247.409 71.2711 246.312C73.1886 245.214 73.8535 242.771 72.7564 240.853L65.8127 244.826ZM202.342 52.9397C204.335 51.9856 205.176 49.5969 204.222 47.6044L188.674 15.1353C187.719 13.1428 185.331 12.3011 183.338 13.2552C181.346 14.2094 180.504 16.5981 181.458 18.5905L195.279 47.452L166.418 61.2729C164.425 62.227 163.584 64.6157 164.538 66.6082C165.492 68.6006 167.88 69.4424 169.873 68.4882L202.342 52.9397ZM72.7564 240.853C42.3177 187.657 44.7792 130.125 69.2533 91.3451C81.4781 71.9745 99.1922 57.259 121.134 49.9394C143.068 42.6222 169.496 42.6076 199.285 53.1047L201.944 45.5594C170.716 34.5554 142.448 34.3955 118.602 42.3505C94.7636 50.303 75.6138 66.2772 62.4879 87.0755C36.2605 128.634 34.0731 189.356 65.8127 244.826L72.7564 240.853Z" fill="#FFC017"/>
<path d="M78.5271 166.135C69.8196 109.538 106.905 77.4854 140.179 74.9007" stroke="#FFC017" stroke-width="8" stroke-linecap="round" stroke-linejoin="round"/>
</svg>
