<svg width="521" height="479" viewBox="0 0 521 479" fill="none" xmlns="http://www.w3.org/2000/svg">
<rect width="521" height="479" rx="15" fill="#FFE49A"/>
<path d="M170.341 357.264H133.165C125.996 357.264 120.185 361.404 120.185 366.51C120.185 371.618 125.996 375.758 133.165 375.758H134.894C142.063 375.758 147.874 379.9 147.874 385.006C147.874 390.113 142.063 394.253 134.894 394.253H54.9781C47.8096 394.253 42 398.394 42 403.503C42 408.609 47.8096 412.749 54.9781 412.749H151.017H347.323C354.492 412.749 360.301 408.609 360.301 403.503C360.301 398.394 354.492 394.253 347.323 394.253H325.144C317.975 394.253 312.164 390.113 312.164 385.006C312.164 379.9 317.975 375.758 325.144 375.758H412.256C419.423 375.758 425.234 371.618 425.234 366.51C425.234 361.404 419.423 357.264 412.256 357.264H405.754H170.341Z" fill="#FFC017"/>
<path d="M398.866 413.581C393.817 413.581 389.723 410.652 389.723 407.04C389.723 403.427 393.817 400.5 398.866 400.5H426.882C431.931 400.5 436.025 403.427 436.025 407.04C436.025 410.652 431.931 413.581 426.882 413.581H398.866Z" fill="#FFC017"/>
<path d="M356.865 49.1155L117.123 130.133C115.922 130.538 115.283 131.82 115.699 132.995L120.54 146.682C120.955 147.857 122.266 148.48 123.468 148.073L363.211 67.0556C364.413 66.6507 365.05 65.3691 364.634 64.1955L359.793 50.5069C359.379 49.3333 358.068 48.7087 356.865 49.1155Z" fill="#F44618"/>
<path d="M375.616 373.233H360.8C359.53 373.233 358.499 372.225 358.499 370.985V329.928C358.499 328.686 359.53 327.678 360.8 327.678H375.616C376.888 327.678 377.918 328.686 377.918 329.928V370.985C377.918 372.225 376.888 373.233 375.616 373.233Z" fill="#F44618"/>
<path d="M173.66 373.233H158.845C157.574 373.233 156.543 372.225 156.543 370.985V329.928C156.543 328.686 157.574 327.678 158.845 327.678H173.66C174.931 327.678 175.962 328.686 175.962 329.928V370.985C175.962 372.225 174.931 373.233 173.66 373.233Z" fill="#F44618"/>
<path d="M427.039 340.963H107.423C99.1604 340.963 92.4614 334.417 92.4614 326.341V131.611C92.4614 123.533 99.1604 116.986 107.423 116.986H427.039C435.301 116.986 442 123.533 442 131.611V326.341C442 334.417 435.301 340.963 427.039 340.963Z" fill="#FFC017"/>
<path opacity="0.35" d="M404.134 119C414.869 130.059 418.697 147.042 418.697 163.49V264.091C418.697 298.161 390.441 325.779 355.586 325.779L132.27 332.086C124.352 332.086 114.681 328.441 107.697 325.838C119.198 337.687 129.578 340.963 155.573 340.963H385.341C420.196 340.963 442 319.65 442 285.581V172.369C442 146.038 427.891 127.853 404.134 119Z" fill="black"/>
<path d="M380.428 56.8373C380.428 67.5596 371.534 76.2516 360.563 76.2516C349.592 76.2516 340.698 67.5596 340.698 56.8373C340.698 46.1132 349.592 37.4194 360.563 37.4194C371.534 37.4194 380.428 46.1132 380.428 56.8373Z" fill="#F44618"/>
<path d="M404.134 228.976C404.134 266.715 372.834 297.307 334.226 297.307C295.617 297.307 264.317 266.715 264.317 228.976C264.317 191.236 295.617 160.642 334.226 160.642C372.834 160.642 404.134 191.236 404.134 228.976Z" fill="#F44618"/>
<path d="M369.179 228.976C369.179 247.845 353.531 263.141 334.226 263.141C314.921 263.141 299.272 247.845 299.272 228.976C299.272 210.107 314.921 194.809 334.226 194.809C353.531 194.809 369.179 210.107 369.179 228.976Z" fill="#FBB713"/>
<path opacity="0.35" d="M362.454 208.976C366.638 214.608 369.179 221.481 369.179 228.976C369.179 247.845 353.531 263.141 334.226 263.141C326.558 263.141 319.53 260.657 313.766 256.567C320.119 265.115 330.355 270.733 341.993 270.733C361.298 270.733 376.948 255.439 376.948 236.566C376.948 225.192 371.201 215.184 362.454 208.976Z" fill="black"/>
<path d="M246.712 211.892H132.399C131.255 211.892 130.329 210.985 130.329 209.866V196.834C130.329 195.716 131.255 194.809 132.399 194.809H246.712C247.855 194.809 248.783 195.716 248.783 196.834V209.866C248.783 210.985 247.855 211.892 246.712 211.892Z" fill="#F44618"/>
<path d="M246.712 287.818H132.399C131.255 287.818 130.329 286.911 130.329 285.791V272.76C130.329 271.64 131.255 270.733 132.399 270.733H246.712C247.855 270.733 248.783 271.64 248.783 272.76V285.791C248.783 286.911 247.855 287.818 246.712 287.818Z" fill="#F44618"/>
<path d="M246.712 249.855H132.399C131.255 249.855 130.329 248.948 130.329 247.83V234.797C130.329 233.677 131.255 232.774 132.399 232.774H246.712C247.855 232.774 248.783 233.677 248.783 234.797V247.83C248.783 248.948 247.855 249.855 246.712 249.855Z" fill="#F44618"/>
</svg>
