<svg width="828" height="869" viewBox="0 0 828 869" fill="none" xmlns="http://www.w3.org/2000/svg">
<rect x="167" y="533" width="336" height="336" fill="#FFE49A"/>
<path d="M186.93 192.089C171.706 217.314 161.599 245.291 157.187 274.423C152.775 303.554 154.145 333.269 161.217 361.871C168.289 390.473 180.925 417.402 198.404 441.121C215.884 464.84 237.864 484.883 263.089 500.107C288.314 515.331 316.291 525.438 345.423 529.85C374.554 534.261 404.269 532.892 432.871 525.82C461.473 518.748 488.402 506.112 512.121 488.632C535.84 471.153 555.883 449.173 571.107 423.948L495.583 378.367C486.345 393.675 474.182 407.013 459.789 417.62C445.396 428.227 429.054 435.895 411.698 440.186C394.341 444.478 376.309 445.309 358.632 442.631C340.954 439.954 323.977 433.821 308.669 424.583C293.362 415.344 280.024 403.182 269.417 388.788C258.81 374.395 251.142 358.054 246.851 340.698C242.559 323.341 241.728 305.309 244.405 287.632C247.083 269.954 253.216 252.977 262.454 237.669L186.93 192.089Z" fill="#FBB713"/>
<circle cx="379" cy="393" r="51" fill="#F44618"/>
<circle cx="769" cy="516" r="51" fill="#FFC017"/>
<circle cx="665.5" cy="706.5" r="162.5" fill="#F44618"/>
<path d="M421.501 305C628.738 258.602 691.496 274.82 750.238 442.125" stroke="black" stroke-width="2"/>
<path d="M141.23 412.154C19.5003 511.874 -7.76953 656.654 97.7305 715.654" stroke="black" stroke-width="2"/>
<line x1="177" y1="727" x2="493" y2="727" stroke="#F44618" stroke-width="2"/>
<line x1="177" y1="770" x2="493" y2="770" stroke="#F44618" stroke-width="2"/>
<line x1="177" y1="857" x2="493" y2="857" stroke="#F44618" stroke-width="2"/>
<line x1="177" y1="814" x2="493" y2="814" stroke="#F44618" stroke-width="2"/>
</svg>
