<svg width="142" height="60" viewBox="0 0 142 60" fill="none" xmlns="http://www.w3.org/2000/svg">
<path d="M1 1V25.18H54.8462L60.5 59.5H89.4941L141 25.18V1H1Z" fill="black" stroke="black"/>
<path d="M13.706 17L9.864 7.854H12.601L15.797 15.725H14.437L17.752 7.854H20.302L16.443 17H13.706ZM38.4241 17.136C37.3815 17.136 36.4635 16.932 35.6701 16.524C34.8881 16.116 34.2818 15.5607 33.8511 14.858C33.4205 14.144 33.2051 13.3337 33.2051 12.427C33.2051 11.509 33.4148 10.6987 33.8341 9.996C34.2648 9.282 34.8485 8.72667 35.5851 8.33C36.3218 7.922 37.1548 7.718 38.0841 7.718C38.9795 7.718 39.7841 7.91067 40.4981 8.296C41.2235 8.67 41.7958 9.214 42.2151 9.928C42.6345 10.6307 42.8441 11.475 42.8441 12.461C42.8441 12.563 42.8385 12.682 42.8271 12.818C42.8158 12.9427 42.8045 13.0617 42.7931 13.175H35.3641V11.628H41.3991L40.3791 12.087C40.3791 11.611 40.2828 11.1973 40.0901 10.846C39.8975 10.4947 39.6311 10.2227 39.2911 10.03C38.9511 9.826 38.5545 9.724 38.1011 9.724C37.6478 9.724 37.2455 9.826 36.8941 10.03C36.5541 10.2227 36.2878 10.5003 36.0951 10.863C35.9025 11.2143 35.8061 11.6337 35.8061 12.121V12.529C35.8061 13.0277 35.9138 13.4697 36.1291 13.855C36.3558 14.229 36.6675 14.518 37.0641 14.722C37.4721 14.9147 37.9481 15.011 38.4921 15.011C38.9795 15.011 39.4045 14.9373 39.7671 14.79C40.1411 14.6427 40.4811 14.4217 40.7871 14.127L42.1981 15.657C41.7788 16.133 41.2518 16.5013 40.6171 16.762C39.9825 17.0113 39.2515 17.136 38.4241 17.136ZM57.3597 17V7.854H59.8927V10.438L59.5357 9.69C59.8077 9.044 60.2441 8.55667 60.8447 8.228C61.4454 7.888 62.1764 7.718 63.0377 7.718V10.166C62.9244 10.1547 62.8224 10.149 62.7317 10.149C62.6411 10.1377 62.5447 10.132 62.4427 10.132C61.7174 10.132 61.1281 10.3417 60.6747 10.761C60.2327 11.169 60.0117 11.8093 60.0117 12.682V17H57.3597ZM81.4201 17.136C80.3434 17.136 79.5047 16.864 78.9041 16.32C78.3034 15.7647 78.0031 14.943 78.0031 13.855V5.831H80.6551V13.821C80.6551 14.2063 80.7571 14.5067 80.9611 14.722C81.1651 14.926 81.4427 15.028 81.7941 15.028C82.2134 15.028 82.5704 14.9147 82.8651 14.688L83.5791 16.558C83.3071 16.7507 82.9784 16.898 82.5931 17C82.2191 17.0907 81.8281 17.136 81.4201 17.136ZM76.5921 10.098V8.058H82.9331V10.098H76.5921ZM102.075 17.136C101.032 17.136 100.114 16.932 99.3205 16.524C98.5385 16.116 97.9322 15.5607 97.5015 14.858C97.0709 14.144 96.8555 13.3337 96.8555 12.427C96.8555 11.509 97.0652 10.6987 97.4845 9.996C97.9152 9.282 98.4989 8.72667 99.2355 8.33C99.9722 7.922 100.805 7.718 101.735 7.718C102.63 7.718 103.435 7.91067 104.149 8.296C104.874 8.67 105.446 9.214 105.866 9.928C106.285 10.6307 106.495 11.475 106.495 12.461C106.495 12.563 106.489 12.682 106.478 12.818C106.466 12.9427 106.455 13.0617 106.444 13.175H99.0145V11.628H105.05L104.03 12.087C104.03 11.611 103.933 11.1973 103.741 10.846C103.548 10.4947 103.282 10.2227 102.942 10.03C102.602 9.826 102.205 9.724 101.752 9.724C101.298 9.724 100.896 9.826 100.545 10.03C100.205 10.2227 99.9382 10.5003 99.7455 10.863C99.5529 11.2143 99.4565 11.6337 99.4565 12.121V12.529C99.4565 13.0277 99.5642 13.4697 99.7795 13.855C100.006 14.229 100.318 14.518 100.715 14.722C101.123 14.9147 101.599 15.011 102.143 15.011C102.63 15.011 103.055 14.9373 103.418 14.79C103.792 14.6427 104.132 14.4217 104.438 14.127L105.849 15.657C105.429 16.133 104.902 16.5013 104.268 16.762C103.633 17.0113 102.902 17.136 102.075 17.136ZM126.416 17.136C125.645 17.136 124.971 16.966 124.393 16.626C123.815 16.286 123.362 15.7703 123.033 15.079C122.716 14.3763 122.557 13.4923 122.557 12.427C122.557 11.3503 122.71 10.4663 123.016 9.775C123.322 9.08367 123.764 8.568 124.342 8.228C124.92 7.888 125.611 7.718 126.416 7.718C127.277 7.718 128.048 7.91633 128.728 8.313C129.419 8.69833 129.963 9.24233 130.36 9.945C130.768 10.6477 130.972 11.475 130.972 12.427C130.972 13.3903 130.768 14.2233 130.36 14.926C129.963 15.6287 129.419 16.1727 128.728 16.558C128.048 16.9433 127.277 17.136 126.416 17.136ZM121.01 20.298V7.854H123.543V9.724L123.492 12.444L123.662 15.147V20.298H121.01ZM125.957 14.96C126.399 14.96 126.79 14.858 127.13 14.654C127.481 14.45 127.759 14.161 127.963 13.787C128.178 13.4017 128.286 12.9483 128.286 12.427C128.286 11.8943 128.178 11.441 127.963 11.067C127.759 10.693 127.481 10.404 127.13 10.2C126.79 9.996 126.399 9.894 125.957 9.894C125.515 9.894 125.118 9.996 124.767 10.2C124.416 10.404 124.138 10.693 123.934 11.067C123.73 11.441 123.628 11.8943 123.628 12.427C123.628 12.9483 123.73 13.4017 123.934 13.787C124.138 14.161 124.416 14.45 124.767 14.654C125.118 14.858 125.515 14.96 125.957 14.96Z" fill="white"/>
</svg>
