<svg width="30" height="30" viewBox="0 0 30 30" fill="none" xmlns="http://www.w3.org/2000/svg">
<g clip-path="url(#clip0_60_75)">
<path fill-rule="evenodd" clip-rule="evenodd" d="M29.9995 5.45951C28.8972 5.96155 27.7103 6.30092 26.4653 6.45256C27.7366 5.67256 28.7123 4.43553 29.1719 2.96225C27.9815 3.68459 26.6662 4.21006 25.2609 4.49178C24.1411 3.26576 22.5403 2.50006 20.7689 2.50006C17.3721 2.50006 14.6163 5.32592 14.6163 8.81108C14.6163 9.30584 14.669 9.78608 14.7747 10.2485C9.65973 9.98459 5.12551 7.47467 2.08777 3.65201C1.55785 4.5874 1.2548 5.67256 1.2548 6.82826C1.2548 9.01686 2.34137 10.9488 3.99301 12.0811C2.9859 12.0504 2.0348 11.7633 1.20371 11.2938V11.3714C1.20371 14.4302 3.32551 16.9816 6.14293 17.5596C5.62707 17.7077 5.08285 17.7818 4.52105 17.7818C4.12496 17.7818 3.73754 17.7438 3.3623 17.6697C4.14582 20.1762 6.41738 22.0017 9.11152 22.0505C7.00543 23.7443 4.35019 24.7535 1.46762 24.7535C0.970976 24.7535 0.479727 24.7247 -0.000976562 24.6668C2.72316 26.4544 5.95965 27.4999 9.43379 27.4999C20.7562 27.4999 26.9456 17.8844 26.9456 9.54397C26.9456 9.26951 26.9402 8.99506 26.9296 8.726C28.1329 7.83584 29.1771 6.72537 29.9995 5.45951Z" fill="black"/>
</g>
<defs>
<clipPath id="clip0_60_75">
<rect width="30" height="30" fill="white"/>
</clipPath>
</defs>
</svg>
