<svg width="34" height="34" viewBox="0 0 34 34" fill="none" xmlns="http://www.w3.org/2000/svg">
<path fill-rule="evenodd" clip-rule="evenodd" d="M10.5755 1.51C12.2372 1.4335 12.7671 1.4165 17.0001 1.4165C21.2331 1.4165 21.7629 1.43492 23.4232 1.51C25.0836 1.58509 26.2169 1.85 27.2086 2.23392C28.247 2.62634 29.1891 3.23975 29.9682 4.03309C30.7616 4.81084 31.3736 5.7515 31.7646 6.79134C32.1499 7.783 32.4134 8.91634 32.4899 10.5738C32.5664 12.2384 32.5834 12.7683 32.5834 16.9998C32.5834 21.2328 32.565 21.7627 32.4899 23.4244C32.4148 25.0819 32.1499 26.2153 31.7646 27.2069C31.3736 28.2469 30.7606 29.1891 29.9682 29.968C29.1891 30.7613 28.247 31.3733 27.2086 31.7643C26.2169 32.1497 25.0836 32.4132 23.4261 32.4897C21.7629 32.5662 21.2331 32.5832 17.0001 32.5832C12.7671 32.5832 12.2372 32.5648 10.5755 32.4897C8.918 32.4146 7.78467 32.1497 6.793 31.7643C5.75305 31.3733 4.81083 30.7603 4.03191 29.968C3.23912 29.1898 2.62561 28.248 2.23416 27.2083C1.85025 26.2167 1.58675 25.0833 1.51025 23.4258C1.43375 21.7613 1.41675 21.2314 1.41675 16.9998C1.41675 12.7668 1.43516 12.237 1.51025 10.5767C1.58533 8.91634 1.85025 7.783 2.23416 6.79134C2.62619 5.75162 3.24017 4.80986 4.03333 4.03167C4.81114 3.23905 5.75242 2.62555 6.79158 2.23392C7.78325 1.85 8.91658 1.5865 10.5741 1.51H10.5755ZM23.2972 4.315C21.6538 4.23992 21.1608 4.22434 17.0001 4.22434C12.8393 4.22434 12.3463 4.23992 10.703 4.315C9.18291 4.38442 8.35842 4.638 7.80875 4.85192C7.082 5.13525 6.56208 5.471 6.01667 6.01642C5.49965 6.51941 5.10175 7.13174 4.85216 7.8085C4.63825 8.35817 4.38466 9.18267 4.31525 10.7028C4.24016 12.3461 4.22458 12.8391 4.22458 16.9998C4.22458 21.1606 4.24016 21.6536 4.31525 23.2969C4.38466 24.817 4.63825 25.6415 4.85216 26.1912C5.1015 26.8669 5.49958 27.4803 6.01667 27.9833C6.51958 28.5003 7.133 28.8984 7.80875 29.1478C8.35842 29.3617 9.18291 29.6153 10.703 29.6847C12.3463 29.7598 12.8379 29.7753 17.0001 29.7753C21.1622 29.7753 21.6538 29.7598 23.2972 29.6847C24.8172 29.6153 25.6418 29.3617 26.1914 29.1478C26.9182 28.8644 27.4381 28.5287 27.9835 27.9833C28.5006 27.4803 28.8987 26.8669 29.148 26.1912C29.3619 25.6415 29.6155 24.817 29.6849 23.2969C29.76 21.6536 29.7756 21.1606 29.7756 16.9998C29.7756 12.8391 29.76 12.3461 29.6849 10.7028C29.6155 9.18267 29.3619 8.35817 29.148 7.8085C28.8647 7.08175 28.5289 6.56184 27.9835 6.01642C27.4805 5.49944 26.8682 5.10155 26.1914 4.85192C25.6418 4.638 24.8172 4.38442 23.2972 4.315V4.315ZM15.0097 21.8038C16.1213 22.2665 17.359 22.3289 18.5116 21.9804C19.6641 21.632 20.6599 20.8941 21.3289 19.893C21.9978 18.8919 22.2985 17.6896 22.1795 16.4914C22.0605 15.2932 21.5292 14.1735 20.6763 13.3236C20.1327 12.7803 19.4753 12.3642 18.7516 12.1055C18.0278 11.8467 17.2557 11.7516 16.4908 11.827C15.7259 11.9025 14.9872 12.1466 14.328 12.5418C13.6687 12.937 13.1053 13.4734 12.6783 14.1125C12.2512 14.7515 11.9712 15.4773 11.8583 16.2376C11.7454 16.9979 11.8025 17.7738 12.0255 18.5093C12.2485 19.2449 12.6318 19.9219 13.1478 20.4915C13.6638 21.0612 14.2997 21.5093 15.0097 21.8038ZM11.3362 11.336C12.08 10.5922 12.963 10.0022 13.9348 9.59968C14.9066 9.19715 15.9482 8.98997 17.0001 8.98997C18.052 8.98997 19.0935 9.19715 20.0653 9.59968C21.0371 10.0022 21.9201 10.5922 22.6639 11.336C23.4077 12.0798 23.9977 12.9628 24.4002 13.9346C24.8028 14.9064 25.01 15.948 25.01 16.9998C25.01 18.0517 24.8028 19.0933 24.4002 20.0651C23.9977 21.0369 23.4077 21.9199 22.6639 22.6637C21.1618 24.1658 19.1244 25.0097 17.0001 25.0097C14.8757 25.0097 12.8384 24.1658 11.3362 22.6637C9.83411 21.1615 8.99021 19.1242 8.99021 16.9998C8.99021 14.8755 9.83411 12.8381 11.3362 11.336V11.336ZM26.7864 10.1828C26.9707 10.009 27.1183 9.79989 27.2203 9.56797C27.3224 9.33605 27.3769 9.08601 27.3806 8.83266C27.3843 8.5793 27.3371 8.32778 27.2418 8.09299C27.1466 7.85819 27.0052 7.64489 26.826 7.46573C26.6469 7.28656 26.4336 7.14516 26.1988 7.0499C25.964 6.95465 25.7125 6.90747 25.4591 6.91116C25.2057 6.91486 24.9557 6.96935 24.7238 7.07141C24.4919 7.17347 24.2828 7.32102 24.1089 7.50534C23.7708 7.8638 23.5856 8.33993 23.5928 8.83266C23.6 9.32538 23.7989 9.79592 24.1474 10.1444C24.4958 10.4928 24.9664 10.6917 25.4591 10.6989C25.9518 10.7061 26.428 10.521 26.7864 10.1828V10.1828Z" fill="black"/>
</svg>
