<svg width="110" height="110" viewBox="0 0 110 110" fill="none" xmlns="http://www.w3.org/2000/svg">
<rect x="6" y="12" width="99" height="85" rx="12" fill="#FFC017" stroke="black" stroke-width="2"/>
<path d="M87 31H23V79H87V31Z" fill="#F0F1F1"/>
<path d="M60.979 49.685C59.461 47.977 57.285 47 55 47C52.715 47 50.539 47.977 49.021 49.685L23 78.958H87L60.979 49.685Z" fill="#E2E4E5"/>
<path d="M49.021 60.273C50.539 61.981 52.715 62.958 55 62.958C57.285 62.958 59.461 61.981 60.979 60.273L87 31H23L49.021 60.273Z" fill="white"/>
<path d="M54.966 65.397C54.966 65.397 66.931 58.495 66.931 50.866C66.931 43.237 54.966 43.427 54.966 49.251C54.966 43.427 43 43.237 43 51.453C43 59.669 54.966 65.397 54.966 65.397Z" fill="#DF2C2C"/>
</svg>
