<svg width="521" height="479" viewBox="0 0 521 479" fill="none" xmlns="http://www.w3.org/2000/svg">
<rect width="521" height="479" rx="15" fill="#FFE49A"/>
<g clip-path="url(#clip0_522_55)">
<path d="M346.626 206.248H268.251V240.154C268.251 264.191 251.596 283.748 231.126 283.748C210.656 283.748 194.001 264.191 194.001 240.154V166.529L160.537 190.143C150.585 197.106 144.501 209.76 144.501 223.322V251.961L103.251 279.934C95.362 285.262 92.6291 297.129 97.2182 306.393L138.468 390.31C143.006 399.574 153.112 402.723 161.001 397.394L214.317 361.248H284.751C302.953 361.248 317.751 343.871 317.751 322.498H326.001C335.128 322.498 342.501 313.84 342.501 303.123V264.373H346.626C353.484 264.373 359.001 257.895 359.001 249.842V220.779C359.001 212.727 353.484 206.248 346.626 206.248ZM422.784 183.604L381.534 99.6857C376.996 90.4221 366.89 87.2736 359.001 92.6018L305.685 128.748H252.988C246.801 128.748 240.768 130.807 235.509 134.621L218.235 147.276C213.389 150.787 210.501 157.024 210.501 163.684V240.154C210.501 253.535 219.731 264.373 231.126 264.373C242.521 264.373 251.751 253.535 251.751 240.154V186.873H346.626C362.559 186.873 375.501 202.07 375.501 220.779V238.035L416.751 210.063C424.64 204.674 427.321 192.867 422.784 183.604Z" fill="#FBB713"/>
</g>
<defs>
<clipPath id="clip0_522_55">
<rect width="330" height="310" fill="white" transform="translate(95 90)"/>
</clipPath>
</defs>
</svg>
