<svg width="494" height="252" viewBox="0 0 494 252" fill="none" xmlns="http://www.w3.org/2000/svg">
<rect y="8" width="494" height="238" fill="#FFC017"/>
<path d="M209.563 21H153.938C151.732 20.8015 149.531 21.4211 147.8 22.7277C146.07 24.0342 144.946 25.9251 144.667 28V231H218.834V28C218.555 25.9251 217.431 24.0342 215.701 22.7277C213.97 21.4211 211.769 20.8015 209.563 21V21Z" fill="white"/>
<path d="M365.461 217.63L313.989 89.53C313.644 88.6704 313.122 87.8835 312.454 87.2143C311.786 86.545 310.985 86.0065 310.097 85.6295C309.208 85.2525 308.25 85.0443 307.276 85.017C306.303 84.9896 305.333 85.1435 304.422 85.47L278.167 95.13V63C278.167 61.1435 277.386 59.363 275.995 58.0503C274.604 56.7375 272.717 56 270.75 56H233.667V231H278.167V102.83L329.564 231L365.461 217.63Z" fill="white"/>
</svg>
