<svg width="77" height="77" viewBox="0 0 77 77" fill="none" xmlns="http://www.w3.org/2000/svg">
<path fill-rule="evenodd" clip-rule="evenodd" d="M4.8125 38.5C4.8125 37.8618 5.06601 37.2498 5.51727 36.7985C5.96853 36.3473 6.58057 36.0937 7.21875 36.0937H63.9726L48.8276 20.9536C48.3758 20.5018 48.122 19.889 48.122 19.25C48.122 18.611 48.3758 17.9982 48.8276 17.5464C49.2795 17.0945 49.8923 16.8407 50.5312 16.8407C51.1702 16.8407 51.783 17.0945 52.2349 17.5464L71.4849 36.7964C71.709 37.0199 71.8867 37.2854 72.0081 37.5777C72.1294 37.8701 72.1918 38.1835 72.1918 38.5C72.1918 38.8165 72.1294 39.1299 72.0081 39.4222C71.8867 39.7146 71.709 39.9801 71.4849 40.2036L52.2349 59.4536C51.783 59.9054 51.1702 60.1593 50.5312 60.1593C49.8923 60.1593 49.2795 59.9054 48.8276 59.4536C48.3758 59.0018 48.122 58.389 48.122 57.75C48.122 57.111 48.3758 56.4982 48.8276 56.0464L63.9726 40.9062H7.21875C6.58057 40.9062 5.96853 40.6527 5.51727 40.2015C5.06601 39.7502 4.8125 39.1382 4.8125 38.5Z" fill="black"/>
</svg>
