<svg width="30" height="30" viewBox="0 0 30 30" fill="none" xmlns="http://www.w3.org/2000/svg">
<path d="M29.5898 15.0586C29.5898 17.0977 29.5488 19.1426 29.6016 21.1817C29.6895 24.791 27.4219 27.5801 24.5332 28.8223C23.373 29.3203 22.1543 29.584 20.8945 29.584C16.9512 29.5899 13.002 29.6426 9.05859 29.5664C6.08789 29.5078 3.64453 28.2656 1.89258 25.8164C0.972656 24.5274 0.533203 23.0625 0.533203 21.4746C0.533203 17.2735 0.533203 13.0781 0.533203 8.87698C0.533203 5.44924 2.20312 3.05276 5.16797 1.49416C6.45703 0.820336 7.85742 0.533227 9.31641 0.527367C13.1426 0.527367 16.9746 0.50393 20.8008 0.539086C23.7715 0.562524 26.25 1.69924 28.0781 4.08987C29.0977 5.4258 29.5898 6.96096 29.5898 8.64846C29.5898 10.7813 29.5898 12.9199 29.5898 15.0586ZM2.69531 15.0586C2.69531 17.209 2.69531 19.3535 2.69531 21.5039C2.69531 22.4649 2.91797 23.3672 3.41602 24.1817C4.72266 26.3203 6.69727 27.3633 9.14648 27.4043C13.0781 27.4629 17.0156 27.4278 20.9531 27.416C21.9199 27.416 22.8574 27.2168 23.7305 26.8008C26.1094 25.6641 27.4395 23.8535 27.4277 21.1348C27.4043 16.9746 27.4219 12.8145 27.4219 8.65432C27.4219 7.47658 27.0879 6.39846 26.3906 5.44924C25.043 3.62698 23.1797 2.73049 20.9531 2.70705C17.0273 2.66018 13.1016 2.68948 9.17578 2.69534C8.33789 2.69534 7.5293 2.86526 6.74414 3.15823C4.58789 3.96096 2.58398 5.99416 2.67773 8.9883C2.74805 11.0156 2.69531 13.0371 2.69531 15.0586Z" fill="black"/>
<path d="M15.0938 21.2695C11.3145 21.2695 8.26759 18.2578 8.26173 14.5078C8.25587 10.8164 11.3262 7.79298 15.082 7.79298C18.8496 7.78712 21.9082 10.8047 21.9141 14.5254C21.9141 18.2402 18.8613 21.2637 15.0938 21.2695ZM15.0938 19.1016C17.666 19.1016 19.752 17.0449 19.7461 14.5137C19.7402 12.0059 17.6543 9.95509 15.0938 9.95509C12.5215 9.95509 10.4238 12 10.4238 14.5254C10.4297 17.0566 12.5215 19.1074 15.0938 19.1016Z" fill="black"/>
<path d="M22.7051 5.74219C23.4961 5.74219 24.1407 6.41602 24.1407 7.24219C24.1348 8.06836 23.4844 8.73633 22.6934 8.73047C21.9141 8.72461 21.2754 8.05664 21.2754 7.24805C21.2696 6.42188 21.9141 5.74219 22.7051 5.74219Z" fill="black"/>
</svg>
