<svg width="438" height="186" viewBox="0 0 438 186" fill="none" xmlns="http://www.w3.org/2000/svg">
<path d="M1 3.11768V78.5024H168.873L186.5 185.5H276.893L437.471 78.5024V3.11768H1Z" fill="#FFC017" stroke="#FFC017"/>
<path d="M40.3948 50L28.6428 22.024H37.0148L46.7908 46.1H42.6308L52.7708 22.024H60.5708L48.7668 50H40.3948ZM116.003 50.416C112.814 50.416 110.006 49.792 107.579 48.544C105.187 47.296 103.333 45.5973 102.015 43.448C100.698 41.264 100.039 38.7853 100.039 36.012C100.039 33.204 100.681 30.7253 101.963 28.576C103.281 26.392 105.066 24.6933 107.319 23.48C109.573 22.232 112.121 21.608 114.963 21.608C117.702 21.608 120.163 22.1973 122.347 23.376C124.566 24.52 126.317 26.184 127.599 28.368C128.882 30.5173 129.523 33.1 129.523 36.116C129.523 36.428 129.506 36.792 129.471 37.208C129.437 37.5893 129.402 37.9533 129.367 38.3H106.643V33.568H125.103L121.983 34.972C121.983 33.516 121.689 32.2507 121.099 31.176C120.51 30.1013 119.695 29.2693 118.655 28.68C117.615 28.056 116.402 27.744 115.015 27.744C113.629 27.744 112.398 28.056 111.323 28.68C110.283 29.2693 109.469 30.1187 108.879 31.228C108.29 32.3027 107.995 33.5853 107.995 35.076V36.324C107.995 37.8493 108.325 39.2013 108.983 40.38C109.677 41.524 110.63 42.408 111.843 43.032C113.091 43.6213 114.547 43.916 116.211 43.916C117.702 43.916 119.002 43.6907 120.111 43.24C121.255 42.7893 122.295 42.1133 123.231 41.212L127.547 45.892C126.265 47.348 124.653 48.4747 122.711 49.272C120.77 50.0347 118.534 50.416 116.003 50.416ZM173.924 50V22.024H181.672V29.928L180.58 27.64C181.412 25.664 182.747 24.1733 184.584 23.168C186.421 22.128 188.657 21.608 191.292 21.608V29.096C190.945 29.0613 190.633 29.044 190.356 29.044C190.079 29.0093 189.784 28.992 189.472 28.992C187.253 28.992 185.451 29.6333 184.064 30.916C182.712 32.164 182.036 34.1227 182.036 36.792V50H173.924ZM247.52 50.416C244.227 50.416 241.662 49.584 239.824 47.92C237.987 46.2213 237.068 43.708 237.068 40.38V15.836H245.18V40.276C245.18 41.4547 245.492 42.3733 246.116 43.032C246.74 43.656 247.59 43.968 248.664 43.968C249.947 43.968 251.039 43.6213 251.94 42.928L254.124 48.648C253.292 49.2373 252.287 49.688 251.108 50C249.964 50.2773 248.768 50.416 247.52 50.416ZM232.752 28.888V22.648H252.148V28.888H232.752ZM310.699 50.416C307.509 50.416 304.701 49.792 302.275 48.544C299.883 47.296 298.028 45.5973 296.711 43.448C295.393 41.264 294.735 38.7853 294.735 36.012C294.735 33.204 295.376 30.7253 296.659 28.576C297.976 26.392 299.761 24.6933 302.015 23.48C304.268 22.232 306.816 21.608 309.659 21.608C312.397 21.608 314.859 22.1973 317.043 23.376C319.261 24.52 321.012 26.184 322.295 28.368C323.577 30.5173 324.219 33.1 324.219 36.116C324.219 36.428 324.201 36.792 324.167 37.208C324.132 37.5893 324.097 37.9533 324.063 38.3H301.339V33.568H319.799L316.679 34.972C316.679 33.516 316.384 32.2507 315.795 31.176C315.205 30.1013 314.391 29.2693 313.351 28.68C312.311 28.056 311.097 27.744 309.711 27.744C308.324 27.744 307.093 28.056 306.019 28.68C304.979 29.2693 304.164 30.1187 303.575 31.228C302.985 32.3027 302.691 33.5853 302.691 35.076V36.324C302.691 37.8493 303.02 39.2013 303.679 40.38C304.372 41.524 305.325 42.408 306.539 43.032C307.787 43.6213 309.243 43.916 310.907 43.916C312.397 43.916 313.697 43.6907 314.807 43.24C315.951 42.7893 316.991 42.1133 317.927 41.212L322.243 45.892C320.96 47.348 319.348 48.4747 317.407 49.272C315.465 50.0347 313.229 50.416 310.699 50.416ZM385.155 50.416C382.798 50.416 380.735 49.896 378.967 48.856C377.199 47.816 375.813 46.2387 374.807 44.124C373.837 41.9747 373.351 39.2707 373.351 36.012C373.351 32.7187 373.819 30.0147 374.755 27.9C375.691 25.7853 377.043 24.208 378.811 23.168C380.579 22.128 382.694 21.608 385.155 21.608C387.79 21.608 390.147 22.2147 392.227 23.428C394.342 24.6067 396.006 26.2707 397.219 28.42C398.467 30.5693 399.091 33.1 399.091 36.012C399.091 38.9587 398.467 41.5067 397.219 43.656C396.006 45.8053 394.342 47.4693 392.227 48.648C390.147 49.8267 387.79 50.416 385.155 50.416ZM368.619 60.088V22.024H376.367V27.744L376.211 36.064L376.731 44.332V60.088H368.619ZM383.751 43.76C385.103 43.76 386.299 43.448 387.339 42.824C388.414 42.2 389.263 41.316 389.887 40.172C390.546 38.9933 390.875 37.6067 390.875 36.012C390.875 34.3827 390.546 32.996 389.887 31.852C389.263 30.708 388.414 29.824 387.339 29.2C386.299 28.576 385.103 28.264 383.751 28.264C382.399 28.264 381.186 28.576 380.111 29.2C379.037 29.824 378.187 30.708 377.563 31.852C376.939 32.996 376.627 34.3827 376.627 36.012C376.627 37.6067 376.939 38.9933 377.563 40.172C378.187 41.316 379.037 42.2 380.111 42.824C381.186 43.448 382.399 43.76 383.751 43.76Z" fill="white"/>
</svg>
