<svg width="494" height="254" viewBox="0 0 494 254" fill="none" xmlns="http://www.w3.org/2000/svg">
<rect y="10" width="494" height="238" fill="#FFC017"/>
<path d="M332.125 31.75V52.9167C332.125 72.5648 325.272 91.4082 313.074 105.301C300.877 119.195 284.333 127 267.083 127H257.791V137.583H304.25V211.667C304.25 217.28 302.292 222.664 298.807 226.634C295.322 230.603 290.595 232.833 285.666 232.833H211.333C206.404 232.833 201.678 230.603 198.193 226.634C194.708 222.664 192.75 217.28 192.75 211.667V137.583H239.208V105.833C239.208 86.1852 246.061 67.3418 258.258 53.4485C270.456 39.5552 287 31.75 304.25 31.75H332.125ZM188.104 21.1667C199.254 21.1564 210.242 24.1975 220.145 30.0342C230.047 35.8708 238.574 44.3319 245.006 54.7052C235.188 69.401 229.886 87.3666 229.916 105.833V116.417H225.271C206.788 116.417 189.063 108.054 175.994 93.1682C162.925 78.2825 155.583 58.0932 155.583 37.0417V21.1667H188.104Z" fill="white"/>
</svg>
